<?xml version="1.0" encoding="UTF-8" standalone="no"?>
<!DOCTYPE svg PUBLIC "-//W3C//DTD SVG 1.1//EN"
 "http://www.w3.org/Graphics/SVG/1.1/DTD/svg11.dtd">
<!-- Generated by graphviz version 2.36.0 (20140111.2315)
 -->
<!-- Title: %3 Pages: 1 -->
<svg width="465pt" height="348pt"
 viewBox="0.00 0.00 465.13 348.00" xmlns="http://www.w3.org/2000/svg" xmlns:xlink="http://www.w3.org/1999/xlink">
<g id="graph0" class="graph" transform="scale(1 1) rotate(0) translate(4 344)">
<title>%3</title>
<polygon fill="white" stroke="none" points="-4,4 -4,-344 461.134,-344 461.134,4 -4,4"/>
<!-- i1 -->
<g id="node1" class="node"><title>i1</title>
<polygon fill="none" stroke="black" points="82.1338,-124 28.1338,-124 28.1338,-88 82.1338,-88 82.1338,-124"/>
<text text-anchor="middle" x="55.1338" y="-102.3" font-family="Helvetica,sans-Serif" font-size="14.00">model</text>
</g>
<!-- i4 -->
<g id="node4" class="node"><title>i4</title>
<polygon fill="none" stroke="black" points="82.6338,-36 27.6338,-36 27.6338,-0 82.6338,-0 82.6338,-36"/>
<text text-anchor="middle" x="55.1338" y="-14.3" font-family="Helvetica,sans-Serif" font-size="14.00">aspect</text>
</g>
<!-- i1&#45;&gt;i4 -->
<g id="edge2" class="edge"><title>i1&#45;&gt;i4</title>
<path fill="none" stroke="black" d="M55.1338,-87.5966C55.1338,-75.7459 55.1338,-59.8169 55.1338,-46.2917"/>
<polygon fill="black" stroke="black" points="58.6339,-46.084 55.1338,-36.084 51.6339,-46.084 58.6339,-46.084"/>
<text text-anchor="middle" x="74.6338" y="-58.3" font-family="Helvetica,sans-Serif" font-size="14.00">knows</text>
</g>
<!-- i2 -->
<g id="node2" class="node"><title>i2</title>
<polygon fill="none" stroke="black" points="245.384,-217 150.884,-217 150.884,-181 245.384,-181 245.384,-217"/>
<text text-anchor="middle" x="198.134" y="-195.3" font-family="Helvetica,sans-Serif" font-size="14.00">model owner</text>
</g>
<!-- i2&#45;&gt;i1 -->
<g id="edge1" class="edge"><title>i2&#45;&gt;i1</title>
<path fill="none" stroke="black" d="M171.237,-180.884C148.367,-166.33 115.361,-145.326 90.3813,-129.43"/>
<polygon fill="black" stroke="black" points="92.2261,-126.456 81.9104,-124.04 88.4679,-132.361 92.2261,-126.456"/>
<text text-anchor="middle" x="155.634" y="-146.3" font-family="Helvetica,sans-Serif" font-size="14.00">knows</text>
</g>
<!-- i3 -->
<g id="node3" class="node"><title>i3</title>
<polygon fill="none" stroke="black" points="233.634,-340 128.634,-340 128.634,-304 233.634,-304 233.634,-340"/>
<text text-anchor="middle" x="181.134" y="-318.3" font-family="Helvetica,sans-Serif" font-size="14.00">aspect adapter</text>
</g>
<!-- i3&#45;&gt;i1 -->
<g id="edge4" class="edge"><title>i3&#45;&gt;i1</title>
<path fill="none" stroke="black" d="M128.289,-306.977C86.952,-292.919 32.2486,-266.777 6.13377,-222 -11.1546,-192.357 11.6089,-155.458 31.542,-131.577"/>
<polygon fill="black" stroke="black" points="34.2061,-133.847 38.1315,-124.006 28.9261,-129.251 34.2061,-133.847"/>
<text text-anchor="middle" x="73.6338" y="-210.3" font-family="Helvetica,sans-Serif" font-size="14.00">observes aspect value</text>
<text text-anchor="middle" x="73.6338" y="-195.3" font-family="Helvetica,sans-Serif" font-size="14.00">gets aspect value</text>
<text text-anchor="middle" x="73.6338" y="-180.3" font-family="Helvetica,sans-Serif" font-size="14.00">sets aspect value</text>
</g>
<!-- i3&#45;&gt;i2 -->
<g id="edge3" class="edge"><title>i3&#45;&gt;i2</title>
<path fill="none" stroke="black" d="M179.533,-303.744C178.425,-287.214 177.825,-261.655 182.134,-240 183.028,-235.505 184.411,-230.869 185.998,-226.419"/>
<polygon fill="black" stroke="black" points="189.262,-227.683 189.685,-217.097 182.752,-225.108 189.262,-227.683"/>
<text text-anchor="middle" x="248.634" y="-259.3" font-family="Helvetica,sans-Serif" font-size="14.00">observes model value</text>
</g>
<!-- i5 -->
<g id="node5" class="node"><title>i5</title>
<polygon fill="none" stroke="black" points="393.384,-217 280.884,-217 280.884,-181 393.384,-181 393.384,-217"/>
<text text-anchor="middle" x="337.134" y="-195.3" font-family="Helvetica,sans-Serif" font-size="14.00">aspect projector</text>
</g>
<!-- i3&#45;&gt;i5 -->
<g id="edge5" class="edge"><title>i3&#45;&gt;i5</title>
<path fill="none" stroke="black" d="M233.836,-319.622C261.49,-316.15 293.935,-307.306 315.134,-286 330.379,-270.677 335.523,-246.331 337.058,-227.447"/>
<polygon fill="black" stroke="black" points="340.56,-227.51 337.588,-217.34 333.569,-227.144 340.56,-227.51"/>
<text text-anchor="middle" x="396.634" y="-274.3" font-family="Helvetica,sans-Serif" font-size="14.00">monitor user inputs</text>
<text text-anchor="middle" x="396.634" y="-259.3" font-family="Helvetica,sans-Serif" font-size="14.00">gets projected value</text>
<text text-anchor="middle" x="396.634" y="-244.3" font-family="Helvetica,sans-Serif" font-size="14.00">sets projected value</text>
</g>
</g>
</svg>
