<?xml version="1.0" encoding="UTF-8" standalone="no"?>
<!DOCTYPE svg PUBLIC "-//W3C//DTD SVG 1.1//EN"
 "http://www.w3.org/Graphics/SVG/1.1/DTD/svg11.dtd">
<!-- Generated by graphviz version 2.36.0 (20140111.2315)
 -->
<!-- Title: %3 Pages: 1 -->
<svg width="480pt" height="348pt"
 viewBox="0.00 0.00 479.86 348.00" xmlns="http://www.w3.org/2000/svg" xmlns:xlink="http://www.w3.org/1999/xlink">
<g id="graph0" class="graph" transform="scale(1 1) rotate(0) translate(4 344)">
<title>%3</title>
<polygon fill="white" stroke="none" points="-4,4 -4,-344 475.855,-344 475.855,4 -4,4"/>
<!-- i1 -->
<g id="node1" class="node"><title>i1</title>
<polygon fill="none" stroke="black" points="83.1052,-124 24.6052,-124 24.6052,-88 83.1052,-88 83.1052,-124"/>
<text text-anchor="middle" x="53.8552" y="-102.3" font-family="Helvetica,sans-Serif" font-size="14.00">Person</text>
</g>
<!-- i4 -->
<g id="node4" class="node"><title>i4</title>
<polygon fill="none" stroke="black" points="80.8552,-36 26.8552,-36 26.8552,-0 80.8552,-0 80.8552,-36"/>
<text text-anchor="middle" x="53.8552" y="-14.3" font-family="Helvetica,sans-Serif" font-size="14.00">name</text>
</g>
<!-- i1&#45;&gt;i4 -->
<g id="edge1" class="edge"><title>i1&#45;&gt;i4</title>
<path fill="none" stroke="black" d="M53.8552,-87.5966C53.8552,-75.7459 53.8552,-59.8169 53.8552,-46.2917"/>
<polygon fill="black" stroke="black" points="57.3553,-46.084 53.8552,-36.084 50.3553,-46.084 57.3553,-46.084"/>
<text text-anchor="middle" x="73.3552" y="-58.3" font-family="Helvetica,sans-Serif" font-size="14.00">knows</text>
</g>
<!-- i2 -->
<g id="node2" class="node"><title>i2</title>
<polygon fill="none" stroke="black" points="238.855,-217 144.855,-217 144.855,-181 238.855,-181 238.855,-217"/>
<text text-anchor="middle" x="191.855" y="-195.3" font-family="Helvetica,sans-Serif" font-size="14.00">PersonPanel</text>
</g>
<!-- i2&#45;&gt;i1 -->
<g id="edge2" class="edge"><title>i2&#45;&gt;i1</title>
<path fill="none" stroke="black" d="M165.898,-180.884C143.925,-166.394 112.254,-145.509 88.1866,-129.639"/>
<polygon fill="black" stroke="black" points="89.9707,-126.623 79.6956,-124.04 86.1171,-132.467 89.9707,-126.623"/>
<text text-anchor="middle" x="151.355" y="-146.3" font-family="Helvetica,sans-Serif" font-size="14.00">knows</text>
</g>
<!-- i3 -->
<g id="node3" class="node"><title>i3</title>
<polygon fill="none" stroke="black" points="225.105,-340 106.605,-340 106.605,-304 225.105,-304 225.105,-340"/>
<text text-anchor="middle" x="165.855" y="-318.3" font-family="Helvetica,sans-Serif" font-size="14.00">TextFieldAdapter</text>
</g>
<!-- i3&#45;&gt;i1 -->
<g id="edge4" class="edge"><title>i3&#45;&gt;i1</title>
<path fill="none" stroke="black" d="M112.751,-303.854C75.5211,-288.731 28.5119,-262.662 5.8552,-222 -10.6294,-192.415 10.9951,-156.011 30.2855,-132.19"/>
<polygon fill="black" stroke="black" points="33.1568,-134.215 36.9452,-124.32 27.8134,-129.693 33.1568,-134.215"/>
<text text-anchor="middle" x="70.8552" y="-210.3" font-family="Helvetica,sans-Serif" font-size="14.00">observes name value</text>
<text text-anchor="middle" x="70.8552" y="-195.3" font-family="Helvetica,sans-Serif" font-size="14.00">gets name value</text>
<text text-anchor="middle" x="70.8552" y="-180.3" font-family="Helvetica,sans-Serif" font-size="14.00">sets name value</text>
</g>
<!-- i3&#45;&gt;i2 -->
<g id="edge3" class="edge"><title>i3&#45;&gt;i2</title>
<path fill="none" stroke="black" d="M163.432,-303.851C161.683,-287.179 160.598,-261.321 166.855,-240 168.252,-235.241 170.387,-230.495 172.833,-226.023"/>
<polygon fill="black" stroke="black" points="175.929,-227.668 178.153,-217.309 169.955,-224.02 175.929,-227.668"/>
<text text-anchor="middle" x="233.355" y="-259.3" font-family="Helvetica,sans-Serif" font-size="14.00">observes model value</text>
</g>
<!-- i5 -->
<g id="node5" class="node"><title>i5</title>
<polygon fill="none" stroke="black" points="361.105,-217 282.605,-217 282.605,-181 361.105,-181 361.105,-217"/>
<text text-anchor="middle" x="321.855" y="-195.3" font-family="Helvetica,sans-Serif" font-size="14.00">JTextField</text>
</g>
<!-- i3&#45;&gt;i5 -->
<g id="edge5" class="edge"><title>i3&#45;&gt;i5</title>
<path fill="none" stroke="black" d="M225.278,-318.682C251.331,-314.655 280.352,-305.601 299.855,-286 315.101,-270.677 320.245,-246.331 321.78,-227.447"/>
<polygon fill="black" stroke="black" points="325.281,-227.51 322.309,-217.34 318.291,-227.144 325.281,-227.51"/>
<text text-anchor="middle" x="396.355" y="-274.3" font-family="Helvetica,sans-Serif" font-size="14.00">monitor user inputs</text>
<text text-anchor="middle" x="396.355" y="-259.3" font-family="Helvetica,sans-Serif" font-size="14.00">gets text field value</text>
<text text-anchor="middle" x="396.355" y="-244.3" font-family="Helvetica,sans-Serif" font-size="14.00">sets text field value value</text>
</g>
</g>
</svg>
