<?xml version="1.0" encoding="UTF-8" standalone="no"?><svg xmlns="http://www.w3.org/2000/svg" xmlns:xlink="http://www.w3.org/1999/xlink" contentScriptType="application/ecmascript" contentStyleType="text/css" height="438px" preserveAspectRatio="none" style="width:750px;height:438px;" version="1.1" viewBox="0 0 750 438" width="750px" zoomAndPan="magnify"><defs><filter height="300%" id="f7hdo1s" width="300%" x="-1" y="-1"><feGaussianBlur result="blurOut" stdDeviation="2.0"/><feColorMatrix in="blurOut" result="blurOut2" type="matrix" values="0 0 0 0 0 0 0 0 0 0 0 0 0 0 0 0 0 0 .4 0"/><feOffset dx="4.0" dy="4.0" in="blurOut2" result="blurOut3"/><feBlend in="SourceGraphic" in2="blurOut3" mode="normal"/></filter></defs><g><line style="stroke: #A80036; stroke-width: 1.0; stroke-dasharray: 5.0,5.0;" x1="48" x2="48" y1="38.2969" y2="437.0234"/><line style="stroke: #A80036; stroke-width: 1.0; stroke-dasharray: 5.0,5.0;" x1="264" x2="264" y1="38.2969" y2="437.0234"/><line style="stroke: #A80036; stroke-width: 1.0; stroke-dasharray: 5.0,5.0;" x1="479" x2="479" y1="38.2969" y2="437.0234"/><line style="stroke: #A80036; stroke-width: 1.0; stroke-dasharray: 5.0,5.0;" x1="608" x2="608" y1="38.2969" y2="437.0234"/><line style="stroke: #A80036; stroke-width: 1.0; stroke-dasharray: 5.0,5.0;" x1="714" x2="714" y1="38.2969" y2="437.0234"/><rect fill="#FEFECE" filter="url(#f7hdo1s)" height="30.2969" style="stroke: #A80036; stroke-width: 1.5;" width="76" x="8" y="3"/><text fill="#000000" font-family="sans-serif" font-size="14" lengthAdjust="spacingAndGlyphs" textLength="62" x="15" y="22.9951">app logic</text><rect fill="#FEFECE" filter="url(#f7hdo1s)" height="30.2969" style="stroke: #A80036; stroke-width: 1.5;" width="118" x="203" y="3"/><text fill="#000000" font-family="sans-serif" font-size="14" lengthAdjust="spacingAndGlyphs" textLength="104" x="210" y="22.9951">aspect adapter</text><rect fill="#FEFECE" filter="url(#f7hdo1s)" height="30.2969" style="stroke: #A80036; stroke-width: 1.5;" width="104" x="425" y="3"/><text fill="#000000" font-family="sans-serif" font-size="14" lengthAdjust="spacingAndGlyphs" textLength="90" x="432" y="22.9951">model owner</text><rect fill="#FEFECE" filter="url(#f7hdo1s)" height="30.2969" style="stroke: #A80036; stroke-width: 1.5;" width="127" x="543" y="3"/><text fill="#000000" font-family="sans-serif" font-size="14" lengthAdjust="spacingAndGlyphs" textLength="113" x="550" y="22.9951">aspect projector</text><rect fill="#FEFECE" filter="url(#f7hdo1s)" height="30.2969" style="stroke: #A80036; stroke-width: 1.5;" width="57" x="684" y="3"/><text fill="#000000" font-family="sans-serif" font-size="14" lengthAdjust="spacingAndGlyphs" textLength="43" x="691" y="22.9951">model</text><polygon fill="#A80036" points="252,65.2969,262,69.2969,252,73.2969,256,69.2969" style="stroke: #A80036; stroke-width: 1.0;"/><line style="stroke: #A80036; stroke-width: 1.0;" x1="48" x2="258" y1="69.2969" y2="69.2969"/><text fill="#000000" font-family="sans-serif" font-size="13" lengthAdjust="spacingAndGlyphs" textLength="192" x="55" y="64.3638">create( model owner, aspect )</text><polygon fill="#A80036" points="467,94.4297,477,98.4297,467,102.4297,471,98.4297" style="stroke: #A80036; stroke-width: 1.0;"/><line style="stroke: #A80036; stroke-width: 1.0;" x1="264" x2="473" y1="98.4297" y2="98.4297"/><text fill="#000000" font-family="sans-serif" font-size="13" lengthAdjust="spacingAndGlyphs" textLength="191" x="271" y="93.4966">listen to model value changes</text><polygon fill="#A80036" points="596.5,123.5625,606.5,127.5625,596.5,131.5625,600.5,127.5625" style="stroke: #A80036; stroke-width: 1.0;"/><line style="stroke: #A80036; stroke-width: 1.0;" x1="264" x2="602.5" y1="127.5625" y2="127.5625"/><text fill="#000000" font-family="sans-serif" font-size="13" lengthAdjust="spacingAndGlyphs" textLength="153" x="271" y="122.6294">listen to projected value</text><polygon fill="#A80036" points="596.5,152.6953,606.5,156.6953,596.5,160.6953,600.5,156.6953" style="stroke: #A80036; stroke-width: 1.0;"/><line style="stroke: #A80036; stroke-width: 1.0;" x1="264" x2="602.5" y1="156.6953" y2="156.6953"/><text fill="#000000" font-family="sans-serif" font-size="13" lengthAdjust="spacingAndGlyphs" textLength="142" x="271" y="151.7622">set no projected value</text><polygon fill="#A80036" points="467,181.8281,477,185.8281,467,189.8281,471,185.8281" style="stroke: #A80036; stroke-width: 1.0;"/><line style="stroke: #A80036; stroke-width: 1.0;" x1="48" x2="473" y1="185.8281" y2="185.8281"/><text fill="#000000" font-family="sans-serif" font-size="13" lengthAdjust="spacingAndGlyphs" textLength="122" x="55" y="180.895">set model( model )</text><polygon fill="#A80036" points="275,210.9609,265,214.9609,275,218.9609,271,214.9609" style="stroke: #A80036; stroke-width: 1.0;"/><line style="stroke: #A80036; stroke-width: 1.0;" x1="269" x2="478" y1="214.9609" y2="214.9609"/><text fill="#000000" font-family="sans-serif" font-size="13" lengthAdjust="spacingAndGlyphs" textLength="184" x="281" y="210.0278">notify of model value change</text><polygon fill="#A80036" points="702.5,240.0938,712.5,244.0938,702.5,248.0938,706.5,244.0938" style="stroke: #A80036; stroke-width: 1.0;"/><line style="stroke: #A80036; stroke-width: 1.0;" x1="264" x2="708.5" y1="244.0938" y2="244.0938"/><text fill="#000000" font-family="sans-serif" font-size="13" lengthAdjust="spacingAndGlyphs" textLength="194" x="271" y="239.1606">listen to aspect value changes</text><polygon fill="#A80036" points="702.5,269.2266,712.5,273.2266,702.5,277.2266,706.5,273.2266" style="stroke: #A80036; stroke-width: 1.0;"/><line style="stroke: #A80036; stroke-width: 1.0;" x1="264" x2="708.5" y1="273.2266" y2="273.2266"/><text fill="#000000" font-family="sans-serif" font-size="13" lengthAdjust="spacingAndGlyphs" textLength="132" x="271" y="268.2935">v = get aspect value</text><polygon fill="#A80036" points="596.5,298.3594,606.5,302.3594,596.5,306.3594,600.5,302.3594" style="stroke: #A80036; stroke-width: 1.0;"/><line style="stroke: #A80036; stroke-width: 1.0;" x1="264" x2="602.5" y1="302.3594" y2="302.3594"/><text fill="#000000" font-family="sans-serif" font-size="13" lengthAdjust="spacingAndGlyphs" textLength="147" x="271" y="297.4263">set projected value( v )</text><polygon fill="#A80036" points="467,327.4922,477,331.4922,467,335.4922,471,331.4922" style="stroke: #A80036; stroke-width: 1.0;"/><line style="stroke: #A80036; stroke-width: 1.0;" x1="48" x2="473" y1="331.4922" y2="331.4922"/><text fill="#000000" font-family="sans-serif" font-size="13" lengthAdjust="spacingAndGlyphs" textLength="104" x="55" y="326.5591">set model( null )</text><polygon fill="#A80036" points="275,356.625,265,360.625,275,364.625,271,360.625" style="stroke: #A80036; stroke-width: 1.0;"/><line style="stroke: #A80036; stroke-width: 1.0;" x1="269" x2="478" y1="360.625" y2="360.625"/><text fill="#000000" font-family="sans-serif" font-size="13" lengthAdjust="spacingAndGlyphs" textLength="184" x="281" y="355.6919">notify of model value change</text><polygon fill="#A80036" points="702.5,385.7578,712.5,389.7578,702.5,393.7578,706.5,389.7578" style="stroke: #A80036; stroke-width: 1.0;"/><line style="stroke: #A80036; stroke-width: 1.0;" x1="264" x2="708.5" y1="389.7578" y2="389.7578"/><text fill="#000000" font-family="sans-serif" font-size="13" lengthAdjust="spacingAndGlyphs" textLength="152" x="271" y="384.8247">unlisten to aspect value</text><polygon fill="#A80036" points="596.5,414.8906,606.5,418.8906,596.5,422.8906,600.5,418.8906" style="stroke: #A80036; stroke-width: 1.0;"/><line style="stroke: #A80036; stroke-width: 1.0;" x1="264" x2="602.5" y1="418.8906" y2="418.8906"/><text fill="#000000" font-family="sans-serif" font-size="13" lengthAdjust="spacingAndGlyphs" textLength="142" x="271" y="413.9575">set no projected value</text></g></svg>