<?xml version="1.0" encoding="UTF-8" standalone="no"?><svg xmlns="http://www.w3.org/2000/svg" xmlns:xlink="http://www.w3.org/1999/xlink" contentScriptType="application/ecmascript" contentStyleType="text/css" height="481px" preserveAspectRatio="none" style="width:797px;height:481px;" version="1.1" viewBox="0 0 797 481" width="797px" zoomAndPan="magnify"><defs><filter height="300%" id="fasre0g" width="300%" x="-1" y="-1"><feGaussianBlur result="blurOut" stdDeviation="2.0"/><feColorMatrix in="blurOut" result="blurOut2" type="matrix" values="0 0 0 0 0 0 0 0 0 0 0 0 0 0 0 0 0 0 .4 0"/><feOffset dx="4.0" dy="4.0" in="blurOut2" result="blurOut3"/><feBlend in="SourceGraphic" in2="blurOut3" mode="normal"/></filter></defs><g><text fill="#000000" font-family="sans-serif" font-size="14" font-weight="bold" lengthAdjust="spacingAndGlyphs" textLength="257" x="271.5" y="22.9951">Maintaining the model reference</text><line style="stroke: #A80036; stroke-width: 1.0; stroke-dasharray: 5.0,5.0;" x1="42" x2="42" y1="81.5938" y2="480.3203"/><line style="stroke: #A80036; stroke-width: 1.0; stroke-dasharray: 5.0,5.0;" x1="311" x2="311" y1="81.5938" y2="480.3203"/><line style="stroke: #A80036; stroke-width: 1.0; stroke-dasharray: 5.0,5.0;" x1="526" x2="526" y1="81.5938" y2="480.3203"/><line style="stroke: #A80036; stroke-width: 1.0; stroke-dasharray: 5.0,5.0;" x1="655" x2="655" y1="81.5938" y2="480.3203"/><line style="stroke: #A80036; stroke-width: 1.0; stroke-dasharray: 5.0,5.0;" x1="761" x2="761" y1="81.5938" y2="480.3203"/><text fill="#000000" font-family="sans-serif" font-size="14" lengthAdjust="spacingAndGlyphs" textLength="62" x="8" y="78.292">app logic</text><ellipse cx="42" cy="49.2969" fill="#FEFECE" filter="url(#fasre0g)" rx="12" ry="12" style="stroke: #A80036; stroke-width: 2.0;"/><polygon fill="#A80036" points="38,37.2969,44,32.2969,42,37.2969,44,42.2969,38,37.2969" style="stroke: #A80036; stroke-width: 1.0;"/><rect fill="#FEFECE" filter="url(#fasre0g)" height="30.2969" style="stroke: #A80036; stroke-width: 1.5;" width="118" x="250" y="46.2969"/><text fill="#000000" font-family="sans-serif" font-size="14" lengthAdjust="spacingAndGlyphs" textLength="104" x="257" y="66.292">aspect adapter</text><rect fill="#FEFECE" filter="url(#fasre0g)" height="30.2969" style="stroke: #A80036; stroke-width: 1.5;" width="104" x="472" y="46.2969"/><text fill="#000000" font-family="sans-serif" font-size="14" lengthAdjust="spacingAndGlyphs" textLength="90" x="479" y="66.292">model owner</text><rect fill="#FEFECE" filter="url(#fasre0g)" height="30.2969" style="stroke: #A80036; stroke-width: 1.5;" width="127" x="590" y="46.2969"/><text fill="#000000" font-family="sans-serif" font-size="14" lengthAdjust="spacingAndGlyphs" textLength="113" x="597" y="66.292">aspect projector</text><rect fill="#FEFECE" filter="url(#fasre0g)" height="30.2969" style="stroke: #A80036; stroke-width: 1.5;" width="57" x="731" y="46.2969"/><text fill="#000000" font-family="sans-serif" font-size="14" lengthAdjust="spacingAndGlyphs" textLength="43" x="738" y="66.292">model</text><polygon fill="#A80036" points="299,108.5938,309,112.5938,299,116.5938,303,112.5938" style="stroke: #A80036; stroke-width: 1.0;"/><line style="stroke: #A80036; stroke-width: 1.0;" x1="42" x2="305" y1="112.5938" y2="112.5938"/><text fill="#000000" font-family="sans-serif" font-size="13" lengthAdjust="spacingAndGlyphs" textLength="245" x="49" y="107.6606">create(model owner, aspect projector)</text><polygon fill="#A80036" points="514,137.7266,524,141.7266,514,145.7266,518,141.7266" style="stroke: #A80036; stroke-width: 1.0;"/><line style="stroke: #A80036; stroke-width: 1.0;" x1="311" x2="520" y1="141.7266" y2="141.7266"/><text fill="#000000" font-family="sans-serif" font-size="13" lengthAdjust="spacingAndGlyphs" textLength="191" x="318" y="136.7935">listen to model value changes</text><polygon fill="#A80036" points="643.5,166.8594,653.5,170.8594,643.5,174.8594,647.5,170.8594" style="stroke: #A80036; stroke-width: 1.0;"/><line style="stroke: #A80036; stroke-width: 1.0;" x1="311" x2="649.5" y1="170.8594" y2="170.8594"/><text fill="#000000" font-family="sans-serif" font-size="13" lengthAdjust="spacingAndGlyphs" textLength="153" x="318" y="165.9263">listen to projected value</text><polygon fill="#A80036" points="643.5,195.9922,653.5,199.9922,643.5,203.9922,647.5,199.9922" style="stroke: #A80036; stroke-width: 1.0;"/><line style="stroke: #A80036; stroke-width: 1.0;" x1="311" x2="649.5" y1="199.9922" y2="199.9922"/><text fill="#000000" font-family="sans-serif" font-size="13" lengthAdjust="spacingAndGlyphs" textLength="142" x="318" y="195.0591">set no projected value</text><polygon fill="#A80036" points="514,225.125,524,229.125,514,233.125,518,229.125" style="stroke: #A80036; stroke-width: 1.0;"/><line style="stroke: #A80036; stroke-width: 1.0;" x1="42" x2="520" y1="229.125" y2="229.125"/><text fill="#000000" font-family="sans-serif" font-size="13" lengthAdjust="spacingAndGlyphs" textLength="122" x="49" y="224.1919">set model( model )</text><polygon fill="#A80036" points="322,254.2578,312,258.2578,322,262.2578,318,258.2578" style="stroke: #A80036; stroke-width: 1.0;"/><line style="stroke: #A80036; stroke-width: 1.0;" x1="316" x2="525" y1="258.2578" y2="258.2578"/><text fill="#000000" font-family="sans-serif" font-size="13" lengthAdjust="spacingAndGlyphs" textLength="184" x="328" y="253.3247">notify of model value change</text><polygon fill="#A80036" points="749.5,283.3906,759.5,287.3906,749.5,291.3906,753.5,287.3906" style="stroke: #A80036; stroke-width: 1.0;"/><line style="stroke: #A80036; stroke-width: 1.0;" x1="311" x2="755.5" y1="287.3906" y2="287.3906"/><text fill="#000000" font-family="sans-serif" font-size="13" lengthAdjust="spacingAndGlyphs" textLength="194" x="318" y="282.4575">listen to aspect value changes</text><polygon fill="#A80036" points="749.5,312.5234,759.5,316.5234,749.5,320.5234,753.5,316.5234" style="stroke: #A80036; stroke-width: 1.0;"/><line style="stroke: #A80036; stroke-width: 1.0;" x1="311" x2="755.5" y1="316.5234" y2="316.5234"/><text fill="#000000" font-family="sans-serif" font-size="13" lengthAdjust="spacingAndGlyphs" textLength="132" x="318" y="311.5903">v = get aspect value</text><polygon fill="#A80036" points="643.5,341.6563,653.5,345.6563,643.5,349.6563,647.5,345.6563" style="stroke: #A80036; stroke-width: 1.0;"/><line style="stroke: #A80036; stroke-width: 1.0;" x1="311" x2="649.5" y1="345.6563" y2="345.6563"/><text fill="#000000" font-family="sans-serif" font-size="13" lengthAdjust="spacingAndGlyphs" textLength="147" x="318" y="340.7231">set projected value( v )</text><polygon fill="#A80036" points="514,370.7891,524,374.7891,514,378.7891,518,374.7891" style="stroke: #A80036; stroke-width: 1.0;"/><line style="stroke: #A80036; stroke-width: 1.0;" x1="42" x2="520" y1="374.7891" y2="374.7891"/><text fill="#000000" font-family="sans-serif" font-size="13" lengthAdjust="spacingAndGlyphs" textLength="104" x="49" y="369.856">set model( null )</text><polygon fill="#A80036" points="322,399.9219,312,403.9219,322,407.9219,318,403.9219" style="stroke: #A80036; stroke-width: 1.0;"/><line style="stroke: #A80036; stroke-width: 1.0;" x1="316" x2="525" y1="403.9219" y2="403.9219"/><text fill="#000000" font-family="sans-serif" font-size="13" lengthAdjust="spacingAndGlyphs" textLength="184" x="328" y="398.9888">notify of model value change</text><polygon fill="#A80036" points="749.5,429.0547,759.5,433.0547,749.5,437.0547,753.5,433.0547" style="stroke: #A80036; stroke-width: 1.0;"/><line style="stroke: #A80036; stroke-width: 1.0;" x1="311" x2="755.5" y1="433.0547" y2="433.0547"/><text fill="#000000" font-family="sans-serif" font-size="13" lengthAdjust="spacingAndGlyphs" textLength="152" x="318" y="428.1216">unlisten to aspect value</text><polygon fill="#A80036" points="643.5,458.1875,653.5,462.1875,643.5,466.1875,647.5,462.1875" style="stroke: #A80036; stroke-width: 1.0;"/><line style="stroke: #A80036; stroke-width: 1.0;" x1="311" x2="649.5" y1="462.1875" y2="462.1875"/><text fill="#000000" font-family="sans-serif" font-size="13" lengthAdjust="spacingAndGlyphs" textLength="142" x="318" y="457.2544">set no projected value</text></g></svg>