<?xml version="1.0" encoding="UTF-8" standalone="no"?><svg xmlns="http://www.w3.org/2000/svg" xmlns:xlink="http://www.w3.org/1999/xlink" contentScriptType="application/ecmascript" contentStyleType="text/css" height="516px" preserveAspectRatio="none" style="width:731px;height:516px;" version="1.1" viewBox="0 0 731 516" width="731px" zoomAndPan="magnify"><defs><filter height="300%" id="f0zthzh" width="300%" x="-1" y="-1"><feGaussianBlur result="blurOut" stdDeviation="2.0"/><feColorMatrix in="blurOut" result="blurOut2" type="matrix" values="0 0 0 0 0 0 0 0 0 0 0 0 0 0 0 0 0 0 .4 0"/><feOffset dx="4.0" dy="4.0" in="blurOut2" result="blurOut3"/><feBlend in="SourceGraphic" in2="blurOut3" mode="normal"/></filter></defs><g><text fill="#000000" font-family="sans-serif" font-size="14" font-weight="bold" lengthAdjust="spacingAndGlyphs" textLength="257" x="238.5" y="22.9951">Maintaining the model reference</text><line style="stroke: #A80036; stroke-width: 1.0; stroke-dasharray: 5.0,5.0;" x1="37" x2="37" y1="116.5938" y2="515.3203"/><line style="stroke: #A80036; stroke-width: 1.0; stroke-dasharray: 5.0,5.0;" x1="245" x2="245" y1="116.5938" y2="515.3203"/><line style="stroke: #A80036; stroke-width: 1.0; stroke-dasharray: 5.0,5.0;" x1="460" x2="460" y1="116.5938" y2="515.3203"/><line style="stroke: #A80036; stroke-width: 1.0; stroke-dasharray: 5.0,5.0;" x1="589" x2="589" y1="116.5938" y2="515.3203"/><line style="stroke: #A80036; stroke-width: 1.0; stroke-dasharray: 5.0,5.0;" x1="695" x2="695" y1="116.5938" y2="515.3203"/><text fill="#000000" font-family="sans-serif" font-size="14" lengthAdjust="spacingAndGlyphs" textLength="52" x="8" y="113.292">context</text><ellipse cx="37" cy="43.2969" fill="#FEFECE" filter="url(#f0zthzh)" rx="8" ry="8" style="stroke: #A80036; stroke-width: 2.0;"/><path d="M37,51.2969 L37,78.2969 M24,59.2969 L50,59.2969 M37,78.2969 L24,93.2969 M37,78.2969 L50,93.2969 " fill="#FEFECE" filter="url(#f0zthzh)" style="stroke: #A80036; stroke-width: 2.0;"/><rect fill="#FEFECE" filter="url(#f0zthzh)" height="30.2969" style="stroke: #A80036; stroke-width: 1.5;" width="118" x="184" y="81.2969"/><text fill="#000000" font-family="sans-serif" font-size="14" lengthAdjust="spacingAndGlyphs" textLength="104" x="191" y="101.292">aspect adapter</text><rect fill="#FEFECE" filter="url(#f0zthzh)" height="30.2969" style="stroke: #A80036; stroke-width: 1.5;" width="104" x="406" y="81.2969"/><text fill="#000000" font-family="sans-serif" font-size="14" lengthAdjust="spacingAndGlyphs" textLength="90" x="413" y="101.292">model owner</text><rect fill="#FEFECE" filter="url(#f0zthzh)" height="30.2969" style="stroke: #A80036; stroke-width: 1.5;" width="127" x="524" y="81.2969"/><text fill="#000000" font-family="sans-serif" font-size="14" lengthAdjust="spacingAndGlyphs" textLength="113" x="531" y="101.292">aspect projector</text><rect fill="#FEFECE" filter="url(#f0zthzh)" height="30.2969" style="stroke: #A80036; stroke-width: 1.5;" width="57" x="665" y="81.2969"/><text fill="#000000" font-family="sans-serif" font-size="14" lengthAdjust="spacingAndGlyphs" textLength="43" x="672" y="101.292">model</text><polygon fill="#A80036" points="233,143.5938,243,147.5938,233,151.5938,237,147.5938" style="stroke: #A80036; stroke-width: 1.0;"/><line style="stroke: #A80036; stroke-width: 1.0;" x1="37" x2="239" y1="147.5938" y2="147.5938"/><text fill="#000000" font-family="sans-serif" font-size="13" lengthAdjust="spacingAndGlyphs" textLength="184" x="44" y="142.6606">create(model owner, aspect)</text><polygon fill="#A80036" points="448,172.7266,458,176.7266,448,180.7266,452,176.7266" style="stroke: #A80036; stroke-width: 1.0;"/><line style="stroke: #A80036; stroke-width: 1.0;" x1="245" x2="454" y1="176.7266" y2="176.7266"/><text fill="#000000" font-family="sans-serif" font-size="13" lengthAdjust="spacingAndGlyphs" textLength="191" x="252" y="171.7935">listen to model value changes</text><polygon fill="#A80036" points="577.5,201.8594,587.5,205.8594,577.5,209.8594,581.5,205.8594" style="stroke: #A80036; stroke-width: 1.0;"/><line style="stroke: #A80036; stroke-width: 1.0;" x1="245" x2="583.5" y1="205.8594" y2="205.8594"/><text fill="#000000" font-family="sans-serif" font-size="13" lengthAdjust="spacingAndGlyphs" textLength="153" x="252" y="200.9263">listen to projected value</text><polygon fill="#A80036" points="577.5,230.9922,587.5,234.9922,577.5,238.9922,581.5,234.9922" style="stroke: #A80036; stroke-width: 1.0;"/><line style="stroke: #A80036; stroke-width: 1.0;" x1="245" x2="583.5" y1="234.9922" y2="234.9922"/><text fill="#000000" font-family="sans-serif" font-size="13" lengthAdjust="spacingAndGlyphs" textLength="142" x="252" y="230.0591">set no projected value</text><polygon fill="#A80036" points="448,260.125,458,264.125,448,268.125,452,264.125" style="stroke: #A80036; stroke-width: 1.0;"/><line style="stroke: #A80036; stroke-width: 1.0;" x1="37" x2="454" y1="264.125" y2="264.125"/><text fill="#000000" font-family="sans-serif" font-size="13" lengthAdjust="spacingAndGlyphs" textLength="122" x="44" y="259.1919">set model( model )</text><polygon fill="#A80036" points="256,289.2578,246,293.2578,256,297.2578,252,293.2578" style="stroke: #A80036; stroke-width: 1.0;"/><line style="stroke: #A80036; stroke-width: 1.0;" x1="250" x2="459" y1="293.2578" y2="293.2578"/><text fill="#000000" font-family="sans-serif" font-size="13" lengthAdjust="spacingAndGlyphs" textLength="184" x="262" y="288.3247">notify of model value change</text><polygon fill="#A80036" points="683.5,318.3906,693.5,322.3906,683.5,326.3906,687.5,322.3906" style="stroke: #A80036; stroke-width: 1.0;"/><line style="stroke: #A80036; stroke-width: 1.0;" x1="245" x2="689.5" y1="322.3906" y2="322.3906"/><text fill="#000000" font-family="sans-serif" font-size="13" lengthAdjust="spacingAndGlyphs" textLength="194" x="252" y="317.4575">listen to aspect value changes</text><polygon fill="#A80036" points="683.5,347.5234,693.5,351.5234,683.5,355.5234,687.5,351.5234" style="stroke: #A80036; stroke-width: 1.0;"/><line style="stroke: #A80036; stroke-width: 1.0;" x1="245" x2="689.5" y1="351.5234" y2="351.5234"/><text fill="#000000" font-family="sans-serif" font-size="13" lengthAdjust="spacingAndGlyphs" textLength="132" x="252" y="346.5903">v = get aspect value</text><polygon fill="#A80036" points="577.5,376.6563,587.5,380.6563,577.5,384.6563,581.5,380.6563" style="stroke: #A80036; stroke-width: 1.0;"/><line style="stroke: #A80036; stroke-width: 1.0;" x1="245" x2="583.5" y1="380.6563" y2="380.6563"/><text fill="#000000" font-family="sans-serif" font-size="13" lengthAdjust="spacingAndGlyphs" textLength="147" x="252" y="375.7231">set projected value( v )</text><polygon fill="#A80036" points="448,405.7891,458,409.7891,448,413.7891,452,409.7891" style="stroke: #A80036; stroke-width: 1.0;"/><line style="stroke: #A80036; stroke-width: 1.0;" x1="37" x2="454" y1="409.7891" y2="409.7891"/><text fill="#000000" font-family="sans-serif" font-size="13" lengthAdjust="spacingAndGlyphs" textLength="104" x="44" y="404.856">set model( null )</text><polygon fill="#A80036" points="256,434.9219,246,438.9219,256,442.9219,252,438.9219" style="stroke: #A80036; stroke-width: 1.0;"/><line style="stroke: #A80036; stroke-width: 1.0;" x1="250" x2="459" y1="438.9219" y2="438.9219"/><text fill="#000000" font-family="sans-serif" font-size="13" lengthAdjust="spacingAndGlyphs" textLength="184" x="262" y="433.9888">notify of model value change</text><polygon fill="#A80036" points="683.5,464.0547,693.5,468.0547,683.5,472.0547,687.5,468.0547" style="stroke: #A80036; stroke-width: 1.0;"/><line style="stroke: #A80036; stroke-width: 1.0;" x1="245" x2="689.5" y1="468.0547" y2="468.0547"/><text fill="#000000" font-family="sans-serif" font-size="13" lengthAdjust="spacingAndGlyphs" textLength="152" x="252" y="463.1216">unlisten to aspect value</text><polygon fill="#A80036" points="577.5,493.1875,587.5,497.1875,577.5,501.1875,581.5,497.1875" style="stroke: #A80036; stroke-width: 1.0;"/><line style="stroke: #A80036; stroke-width: 1.0;" x1="245" x2="583.5" y1="497.1875" y2="497.1875"/><text fill="#000000" font-family="sans-serif" font-size="13" lengthAdjust="spacingAndGlyphs" textLength="142" x="252" y="492.2544">set no projected value</text></g></svg>