<?xml version="1.0" encoding="UTF-8" standalone="no"?><svg xmlns="http://www.w3.org/2000/svg" xmlns:xlink="http://www.w3.org/1999/xlink" contentScriptType="application/ecmascript" contentStyleType="text/css" height="481px" preserveAspectRatio="none" style="width:790px;height:481px;" version="1.1" viewBox="0 0 790 481" width="790px" zoomAndPan="magnify"><defs><filter height="300%" id="fbge4b2" width="300%" x="-1" y="-1"><feGaussianBlur result="blurOut" stdDeviation="2.0"/><feColorMatrix in="blurOut" result="blurOut2" type="matrix" values="0 0 0 0 0 0 0 0 0 0 0 0 0 0 0 0 0 0 .4 0"/><feOffset dx="4.0" dy="4.0" in="blurOut2" result="blurOut3"/><feBlend in="SourceGraphic" in2="blurOut3" mode="normal"/></filter></defs><g><text fill="#000000" font-family="sans-serif" font-size="14" font-weight="bold" lengthAdjust="spacingAndGlyphs" textLength="257" x="268.25" y="22.9951">Maintaining the model reference</text><line style="stroke: #A80036; stroke-width: 1.0; stroke-dasharray: 5.0,5.0;" x1="35" x2="35" y1="81.5938" y2="480.3203"/><line style="stroke: #A80036; stroke-width: 1.0; stroke-dasharray: 5.0,5.0;" x1="304.5" x2="304.5" y1="81.5938" y2="480.3203"/><line style="stroke: #A80036; stroke-width: 1.0; stroke-dasharray: 5.0,5.0;" x1="519.5" x2="519.5" y1="81.5938" y2="480.3203"/><line style="stroke: #A80036; stroke-width: 1.0; stroke-dasharray: 5.0,5.0;" x1="648.5" x2="648.5" y1="81.5938" y2="480.3203"/><line style="stroke: #A80036; stroke-width: 1.0; stroke-dasharray: 5.0,5.0;" x1="754.5" x2="754.5" y1="81.5938" y2="480.3203"/><text fill="#000000" font-family="sans-serif" font-size="14" lengthAdjust="spacingAndGlyphs" textLength="49" x="8" y="78.292">feature</text><ellipse cx="35.5" cy="49.2969" fill="#FEFECE" filter="url(#fbge4b2)" rx="12" ry="12" style="stroke: #A80036; stroke-width: 2.0;"/><polygon fill="#A80036" points="31.5,37.2969,37.5,32.2969,35.5,37.2969,37.5,42.2969,31.5,37.2969" style="stroke: #A80036; stroke-width: 1.0;"/><rect fill="#FEFECE" filter="url(#fbge4b2)" height="30.2969" style="stroke: #A80036; stroke-width: 1.5;" width="118" x="243.5" y="46.2969"/><text fill="#000000" font-family="sans-serif" font-size="14" lengthAdjust="spacingAndGlyphs" textLength="104" x="250.5" y="66.292">aspect adapter</text><rect fill="#FEFECE" filter="url(#fbge4b2)" height="30.2969" style="stroke: #A80036; stroke-width: 1.5;" width="104" x="465.5" y="46.2969"/><text fill="#000000" font-family="sans-serif" font-size="14" lengthAdjust="spacingAndGlyphs" textLength="90" x="472.5" y="66.292">model owner</text><rect fill="#FEFECE" filter="url(#fbge4b2)" height="30.2969" style="stroke: #A80036; stroke-width: 1.5;" width="127" x="583.5" y="46.2969"/><text fill="#000000" font-family="sans-serif" font-size="14" lengthAdjust="spacingAndGlyphs" textLength="113" x="590.5" y="66.292">aspect projector</text><rect fill="#FEFECE" filter="url(#fbge4b2)" height="30.2969" style="stroke: #A80036; stroke-width: 1.5;" width="57" x="724.5" y="46.2969"/><text fill="#000000" font-family="sans-serif" font-size="14" lengthAdjust="spacingAndGlyphs" textLength="43" x="731.5" y="66.292">model</text><polygon fill="#A80036" points="292.5,108.5938,302.5,112.5938,292.5,116.5938,296.5,112.5938" style="stroke: #A80036; stroke-width: 1.0;"/><line style="stroke: #A80036; stroke-width: 1.0;" x1="35.5" x2="298.5" y1="112.5938" y2="112.5938"/><text fill="#000000" font-family="sans-serif" font-size="13" lengthAdjust="spacingAndGlyphs" textLength="245" x="42.5" y="107.6606">create(model owner, aspect projector)</text><polygon fill="#A80036" points="507.5,137.7266,517.5,141.7266,507.5,145.7266,511.5,141.7266" style="stroke: #A80036; stroke-width: 1.0;"/><line style="stroke: #A80036; stroke-width: 1.0;" x1="304.5" x2="513.5" y1="141.7266" y2="141.7266"/><text fill="#000000" font-family="sans-serif" font-size="13" lengthAdjust="spacingAndGlyphs" textLength="191" x="311.5" y="136.7935">listen to model value changes</text><polygon fill="#A80036" points="637,166.8594,647,170.8594,637,174.8594,641,170.8594" style="stroke: #A80036; stroke-width: 1.0;"/><line style="stroke: #A80036; stroke-width: 1.0;" x1="304.5" x2="643" y1="170.8594" y2="170.8594"/><text fill="#000000" font-family="sans-serif" font-size="13" lengthAdjust="spacingAndGlyphs" textLength="153" x="311.5" y="165.9263">listen to projected value</text><polygon fill="#A80036" points="637,195.9922,647,199.9922,637,203.9922,641,199.9922" style="stroke: #A80036; stroke-width: 1.0;"/><line style="stroke: #A80036; stroke-width: 1.0;" x1="304.5" x2="643" y1="199.9922" y2="199.9922"/><text fill="#000000" font-family="sans-serif" font-size="13" lengthAdjust="spacingAndGlyphs" textLength="142" x="311.5" y="195.0591">set no projected value</text><polygon fill="#A80036" points="507.5,225.125,517.5,229.125,507.5,233.125,511.5,229.125" style="stroke: #A80036; stroke-width: 1.0;"/><line style="stroke: #A80036; stroke-width: 1.0;" x1="35.5" x2="513.5" y1="229.125" y2="229.125"/><text fill="#000000" font-family="sans-serif" font-size="13" lengthAdjust="spacingAndGlyphs" textLength="122" x="42.5" y="224.1919">set model( model )</text><polygon fill="#A80036" points="315.5,254.2578,305.5,258.2578,315.5,262.2578,311.5,258.2578" style="stroke: #A80036; stroke-width: 1.0;"/><line style="stroke: #A80036; stroke-width: 1.0;" x1="309.5" x2="518.5" y1="258.2578" y2="258.2578"/><text fill="#000000" font-family="sans-serif" font-size="13" lengthAdjust="spacingAndGlyphs" textLength="184" x="321.5" y="253.3247">notify of model value change</text><polygon fill="#A80036" points="743,283.3906,753,287.3906,743,291.3906,747,287.3906" style="stroke: #A80036; stroke-width: 1.0;"/><line style="stroke: #A80036; stroke-width: 1.0;" x1="304.5" x2="749" y1="287.3906" y2="287.3906"/><text fill="#000000" font-family="sans-serif" font-size="13" lengthAdjust="spacingAndGlyphs" textLength="194" x="311.5" y="282.4575">listen to aspect value changes</text><polygon fill="#A80036" points="743,312.5234,753,316.5234,743,320.5234,747,316.5234" style="stroke: #A80036; stroke-width: 1.0;"/><line style="stroke: #A80036; stroke-width: 1.0;" x1="304.5" x2="749" y1="316.5234" y2="316.5234"/><text fill="#000000" font-family="sans-serif" font-size="13" lengthAdjust="spacingAndGlyphs" textLength="132" x="311.5" y="311.5903">v = get aspect value</text><polygon fill="#A80036" points="637,341.6563,647,345.6563,637,349.6563,641,345.6563" style="stroke: #A80036; stroke-width: 1.0;"/><line style="stroke: #A80036; stroke-width: 1.0;" x1="304.5" x2="643" y1="345.6563" y2="345.6563"/><text fill="#000000" font-family="sans-serif" font-size="13" lengthAdjust="spacingAndGlyphs" textLength="147" x="311.5" y="340.7231">set projected value( v )</text><polygon fill="#A80036" points="507.5,370.7891,517.5,374.7891,507.5,378.7891,511.5,374.7891" style="stroke: #A80036; stroke-width: 1.0;"/><line style="stroke: #A80036; stroke-width: 1.0;" x1="35.5" x2="513.5" y1="374.7891" y2="374.7891"/><text fill="#000000" font-family="sans-serif" font-size="13" lengthAdjust="spacingAndGlyphs" textLength="104" x="42.5" y="369.856">set model( null )</text><polygon fill="#A80036" points="315.5,399.9219,305.5,403.9219,315.5,407.9219,311.5,403.9219" style="stroke: #A80036; stroke-width: 1.0;"/><line style="stroke: #A80036; stroke-width: 1.0;" x1="309.5" x2="518.5" y1="403.9219" y2="403.9219"/><text fill="#000000" font-family="sans-serif" font-size="13" lengthAdjust="spacingAndGlyphs" textLength="184" x="321.5" y="398.9888">notify of model value change</text><polygon fill="#A80036" points="743,429.0547,753,433.0547,743,437.0547,747,433.0547" style="stroke: #A80036; stroke-width: 1.0;"/><line style="stroke: #A80036; stroke-width: 1.0;" x1="304.5" x2="749" y1="433.0547" y2="433.0547"/><text fill="#000000" font-family="sans-serif" font-size="13" lengthAdjust="spacingAndGlyphs" textLength="152" x="311.5" y="428.1216">unlisten to aspect value</text><polygon fill="#A80036" points="637,458.1875,647,462.1875,637,466.1875,641,462.1875" style="stroke: #A80036; stroke-width: 1.0;"/><line style="stroke: #A80036; stroke-width: 1.0;" x1="304.5" x2="643" y1="462.1875" y2="462.1875"/><text fill="#000000" font-family="sans-serif" font-size="13" lengthAdjust="spacingAndGlyphs" textLength="142" x="311.5" y="457.2544">set no projected value</text></g></svg>