<?xml version="1.0" encoding="UTF-8" standalone="no"?><svg xmlns="http://www.w3.org/2000/svg" xmlns:xlink="http://www.w3.org/1999/xlink" contentScriptType="application/ecmascript" contentStyleType="text/css" height="370px" preserveAspectRatio="none" style="width:562px;height:370px;" version="1.1" viewBox="0 0 562 370" width="562px" zoomAndPan="magnify"><defs><filter height="300%" id="fuywtkt" width="300%" x="-1" y="-1"><feGaussianBlur result="blurOut" stdDeviation="2.0"/><feColorMatrix in="blurOut" result="blurOut2" type="matrix" values="0 0 0 0 0 0 0 0 0 0 0 0 0 0 0 0 0 0 .4 0"/><feOffset dx="4.0" dy="4.0" in="blurOut2" result="blurOut3"/><feBlend in="SourceGraphic" in2="blurOut3" mode="normal"/></filter></defs><g><text fill="#000000" font-family="sans-serif" font-size="14" font-weight="bold" lengthAdjust="spacingAndGlyphs" textLength="222" x="171.75" y="22.9951">Name value synchronization</text><line style="stroke: #A80036; stroke-width: 1.0; stroke-dasharray: 5.0,5.0;" x1="26" x2="26" y1="116.5938" y2="369.6563"/><line style="stroke: #A80036; stroke-width: 1.0; stroke-dasharray: 5.0,5.0;" x1="89" x2="89" y1="116.5938" y2="369.6563"/><line style="stroke: #A80036; stroke-width: 1.0; stroke-dasharray: 5.0,5.0;" x1="171" x2="171" y1="116.5938" y2="369.6563"/><line style="stroke: #A80036; stroke-width: 1.0; stroke-dasharray: 5.0,5.0;" x1="354.5" x2="354.5" y1="116.5938" y2="369.6563"/><line style="stroke: #A80036; stroke-width: 1.0; stroke-dasharray: 5.0,5.0;" x1="523.5" x2="523.5" y1="116.5938" y2="369.6563"/><text fill="#000000" font-family="sans-serif" font-size="14" lengthAdjust="spacingAndGlyphs" textLength="31" x="8" y="113.292">user</text><ellipse cx="26.5" cy="43.2969" fill="#FEFECE" filter="url(#fuywtkt)" rx="8" ry="8" style="stroke: #A80036; stroke-width: 2.0;"/><path d="M26.5,51.2969 L26.5,78.2969 M13.5,59.2969 L39.5,59.2969 M26.5,78.2969 L13.5,93.2969 M26.5,78.2969 L39.5,93.2969 " fill="#FEFECE" filter="url(#fuywtkt)" style="stroke: #A80036; stroke-width: 2.0;"/><text fill="#000000" font-family="sans-serif" font-size="14" lengthAdjust="spacingAndGlyphs" textLength="62" x="55" y="113.292">app logic</text><ellipse cx="89" cy="84.2969" fill="#FEFECE" filter="url(#fuywtkt)" rx="12" ry="12" style="stroke: #A80036; stroke-width: 2.0;"/><polygon fill="#A80036" points="85,72.2969,91,67.2969,89,72.2969,91,77.2969,85,72.2969" style="stroke: #A80036; stroke-width: 1.0;"/><rect fill="#FEFECE" filter="url(#fuywtkt)" height="30.2969" style="stroke: #A80036; stroke-width: 1.5;" width="72" x="133" y="81.2969"/><text fill="#000000" font-family="sans-serif" font-size="14" lengthAdjust="spacingAndGlyphs" textLength="58" x="140" y="101.292">text field</text><rect fill="#FEFECE" filter="url(#fuywtkt)" height="30.2969" style="stroke: #A80036; stroke-width: 1.5;" width="129" x="288.5" y="81.2969"/><text fill="#000000" font-family="sans-serif" font-size="14" lengthAdjust="spacingAndGlyphs" textLength="115" x="295.5" y="101.292">text field adapter</text><rect fill="#FEFECE" filter="url(#fuywtkt)" height="30.2969" style="stroke: #A80036; stroke-width: 1.5;" width="63" x="490.5" y="81.2969"/><text fill="#000000" font-family="sans-serif" font-size="14" lengthAdjust="spacingAndGlyphs" textLength="49" x="497.5" y="101.292">person</text><polygon fill="#A80036" points="159,143.5938,169,147.5938,159,151.5938,163,147.5938" style="stroke: #A80036; stroke-width: 1.0;"/><line style="stroke: #A80036; stroke-width: 1.0;" x1="26.5" x2="165" y1="147.5938" y2="147.5938"/><text fill="#000000" font-family="sans-serif" font-size="13" lengthAdjust="spacingAndGlyphs" textLength="99" x="33.5" y="142.6606">enters new text</text><polygon fill="#A80036" points="343,172.7266,353,176.7266,343,180.7266,347,176.7266" style="stroke: #A80036; stroke-width: 1.0;"/><line style="stroke: #A80036; stroke-width: 1.0;" x1="171" x2="349" y1="176.7266" y2="176.7266"/><text fill="#000000" font-family="sans-serif" font-size="13" lengthAdjust="spacingAndGlyphs" textLength="160" x="178" y="171.7935">actionPerformed( event )</text><polygon fill="#A80036" points="182,201.8594,172,205.8594,182,209.8594,178,205.8594" style="stroke: #A80036; stroke-width: 1.0;"/><line style="stroke: #A80036; stroke-width: 1.0;" x1="176" x2="354" y1="205.8594" y2="205.8594"/><text fill="#000000" font-family="sans-serif" font-size="13" lengthAdjust="spacingAndGlyphs" textLength="84" x="188" y="200.9263">x = getText()</text><polygon fill="#A80036" points="512,230.9922,522,234.9922,512,238.9922,516,234.9922" style="stroke: #A80036; stroke-width: 1.0;"/><line style="stroke: #A80036; stroke-width: 1.0;" x1="355" x2="518" y1="234.9922" y2="234.9922"/><text fill="#000000" font-family="sans-serif" font-size="13" lengthAdjust="spacingAndGlyphs" textLength="84" x="362" y="230.0591">setName( x )</text><polygon fill="#A80036" points="512,260.125,522,264.125,512,268.125,516,264.125" style="stroke: #A80036; stroke-width: 1.0;"/><line style="stroke: #A80036; stroke-width: 1.0;" x1="89" x2="518" y1="264.125" y2="264.125"/><text fill="#000000" font-family="sans-serif" font-size="13" lengthAdjust="spacingAndGlyphs" textLength="106" x="96" y="259.1919">setName( "joe" )</text><polygon fill="#A80036" points="366,289.2578,356,293.2578,366,297.2578,362,293.2578" style="stroke: #A80036; stroke-width: 1.0;"/><line style="stroke: #A80036; stroke-width: 1.0;" x1="360" x2="523" y1="293.2578" y2="293.2578"/><text fill="#000000" font-family="sans-serif" font-size="13" lengthAdjust="spacingAndGlyphs" textLength="145" x="372" y="288.3247">valueChanged( event )</text><polygon fill="#A80036" points="512,318.3906,522,322.3906,512,326.3906,516,322.3906" style="stroke: #A80036; stroke-width: 1.0;"/><line style="stroke: #A80036; stroke-width: 1.0;" x1="355" x2="518" y1="322.3906" y2="322.3906"/><text fill="#000000" font-family="sans-serif" font-size="13" lengthAdjust="spacingAndGlyphs" textLength="96" x="362" y="317.4575">x = getName()</text><polygon fill="#A80036" points="182,347.5234,172,351.5234,182,355.5234,178,351.5234" style="stroke: #A80036; stroke-width: 1.0;"/><line style="stroke: #A80036; stroke-width: 1.0;" x1="176" x2="354" y1="351.5234" y2="351.5234"/><text fill="#000000" font-family="sans-serif" font-size="13" lengthAdjust="spacingAndGlyphs" textLength="72" x="188" y="346.5903">setText( x )</text></g></svg>