<?xml version="1.0" encoding="UTF-8" standalone="no"?><svg xmlns="http://www.w3.org/2000/svg" xmlns:xlink="http://www.w3.org/1999/xlink" contentScriptType="application/ecmascript" contentStyleType="text/css" height="340px" preserveAspectRatio="none" style="width:562px;height:340px;" version="1.1" viewBox="0 0 562 340" width="562px" zoomAndPan="magnify"><defs><filter height="300%" id="f16p7jq" width="300%" x="-1" y="-1"><feGaussianBlur result="blurOut" stdDeviation="2.0"/><feColorMatrix in="blurOut" result="blurOut2" type="matrix" values="0 0 0 0 0 0 0 0 0 0 0 0 0 0 0 0 0 0 .4 0"/><feOffset dx="4.0" dy="4.0" in="blurOut2" result="blurOut3"/><feBlend in="SourceGraphic" in2="blurOut3" mode="normal"/></filter></defs><g><line style="stroke: #A80036; stroke-width: 1.0; stroke-dasharray: 5.0,5.0;" x1="26" x2="26" y1="86.2969" y2="339.3594"/><line style="stroke: #A80036; stroke-width: 1.0; stroke-dasharray: 5.0,5.0;" x1="89" x2="89" y1="86.2969" y2="339.3594"/><line style="stroke: #A80036; stroke-width: 1.0; stroke-dasharray: 5.0,5.0;" x1="171" x2="171" y1="86.2969" y2="339.3594"/><line style="stroke: #A80036; stroke-width: 1.0; stroke-dasharray: 5.0,5.0;" x1="354.5" x2="354.5" y1="86.2969" y2="339.3594"/><line style="stroke: #A80036; stroke-width: 1.0; stroke-dasharray: 5.0,5.0;" x1="523.5" x2="523.5" y1="86.2969" y2="339.3594"/><text fill="#000000" font-family="sans-serif" font-size="14" lengthAdjust="spacingAndGlyphs" textLength="31" x="8" y="82.9951">user</text><ellipse cx="26.5" cy="13" fill="#FEFECE" filter="url(#f16p7jq)" rx="8" ry="8" style="stroke: #A80036; stroke-width: 2.0;"/><path d="M26.5,21 L26.5,48 M13.5,29 L39.5,29 M26.5,48 L13.5,63 M26.5,48 L39.5,63 " fill="#FEFECE" filter="url(#f16p7jq)" style="stroke: #A80036; stroke-width: 2.0;"/><text fill="#000000" font-family="sans-serif" font-size="14" lengthAdjust="spacingAndGlyphs" textLength="62" x="55" y="82.9951">app logic</text><ellipse cx="89" cy="54" fill="#FEFECE" filter="url(#f16p7jq)" rx="12" ry="12" style="stroke: #A80036; stroke-width: 2.0;"/><polygon fill="#A80036" points="85,42,91,37,89,42,91,47,85,42" style="stroke: #A80036; stroke-width: 1.0;"/><rect fill="#FEFECE" filter="url(#f16p7jq)" height="30.2969" style="stroke: #A80036; stroke-width: 1.5;" width="72" x="133" y="51"/><text fill="#000000" font-family="sans-serif" font-size="14" lengthAdjust="spacingAndGlyphs" textLength="58" x="140" y="70.9951">text field</text><rect fill="#FEFECE" filter="url(#f16p7jq)" height="30.2969" style="stroke: #A80036; stroke-width: 1.5;" width="129" x="288.5" y="51"/><text fill="#000000" font-family="sans-serif" font-size="14" lengthAdjust="spacingAndGlyphs" textLength="115" x="295.5" y="70.9951">text field adapter</text><rect fill="#FEFECE" filter="url(#f16p7jq)" height="30.2969" style="stroke: #A80036; stroke-width: 1.5;" width="63" x="490.5" y="51"/><text fill="#000000" font-family="sans-serif" font-size="14" lengthAdjust="spacingAndGlyphs" textLength="49" x="497.5" y="70.9951">person</text><polygon fill="#A80036" points="159,113.2969,169,117.2969,159,121.2969,163,117.2969" style="stroke: #A80036; stroke-width: 1.0;"/><line style="stroke: #A80036; stroke-width: 1.0;" x1="26.5" x2="165" y1="117.2969" y2="117.2969"/><text fill="#000000" font-family="sans-serif" font-size="13" lengthAdjust="spacingAndGlyphs" textLength="99" x="33.5" y="112.3638">enters new text</text><polygon fill="#A80036" points="343,142.4297,353,146.4297,343,150.4297,347,146.4297" style="stroke: #A80036; stroke-width: 1.0;"/><line style="stroke: #A80036; stroke-width: 1.0;" x1="171" x2="349" y1="146.4297" y2="146.4297"/><text fill="#000000" font-family="sans-serif" font-size="13" lengthAdjust="spacingAndGlyphs" textLength="160" x="178" y="141.4966">actionPerformed( event )</text><polygon fill="#A80036" points="182,171.5625,172,175.5625,182,179.5625,178,175.5625" style="stroke: #A80036; stroke-width: 1.0;"/><line style="stroke: #A80036; stroke-width: 1.0;" x1="176" x2="354" y1="175.5625" y2="175.5625"/><text fill="#000000" font-family="sans-serif" font-size="13" lengthAdjust="spacingAndGlyphs" textLength="84" x="188" y="170.6294">x = getText()</text><polygon fill="#A80036" points="512,200.6953,522,204.6953,512,208.6953,516,204.6953" style="stroke: #A80036; stroke-width: 1.0;"/><line style="stroke: #A80036; stroke-width: 1.0;" x1="355" x2="518" y1="204.6953" y2="204.6953"/><text fill="#000000" font-family="sans-serif" font-size="13" lengthAdjust="spacingAndGlyphs" textLength="84" x="362" y="199.7622">setName( x )</text><polygon fill="#A80036" points="512,229.8281,522,233.8281,512,237.8281,516,233.8281" style="stroke: #A80036; stroke-width: 1.0;"/><line style="stroke: #A80036; stroke-width: 1.0;" x1="89" x2="518" y1="233.8281" y2="233.8281"/><text fill="#000000" font-family="sans-serif" font-size="13" lengthAdjust="spacingAndGlyphs" textLength="106" x="96" y="228.895">setName( "joe" )</text><polygon fill="#A80036" points="366,258.9609,356,262.9609,366,266.9609,362,262.9609" style="stroke: #A80036; stroke-width: 1.0;"/><line style="stroke: #A80036; stroke-width: 1.0;" x1="360" x2="523" y1="262.9609" y2="262.9609"/><text fill="#000000" font-family="sans-serif" font-size="13" lengthAdjust="spacingAndGlyphs" textLength="145" x="372" y="258.0278">valueChanged( event )</text><polygon fill="#A80036" points="512,288.0938,522,292.0938,512,296.0938,516,292.0938" style="stroke: #A80036; stroke-width: 1.0;"/><line style="stroke: #A80036; stroke-width: 1.0;" x1="355" x2="518" y1="292.0938" y2="292.0938"/><text fill="#000000" font-family="sans-serif" font-size="13" lengthAdjust="spacingAndGlyphs" textLength="96" x="362" y="287.1606">x = getName()</text><polygon fill="#A80036" points="182,317.2266,172,321.2266,182,325.2266,178,321.2266" style="stroke: #A80036; stroke-width: 1.0;"/><line style="stroke: #A80036; stroke-width: 1.0;" x1="176" x2="354" y1="321.2266" y2="321.2266"/><text fill="#000000" font-family="sans-serif" font-size="13" lengthAdjust="spacingAndGlyphs" textLength="72" x="188" y="316.2935">setText( x )</text></g></svg>