<?xml version="1.0" encoding="UTF-8" standalone="no"?><svg xmlns="http://www.w3.org/2000/svg" xmlns:xlink="http://www.w3.org/1999/xlink" contentScriptType="application/ecmascript" contentStyleType="text/css" height="370px" preserveAspectRatio="none" style="width:549px;height:370px;" version="1.1" viewBox="0 0 549 370" width="549px" zoomAndPan="magnify"><defs><filter height="300%" id="fbj7qve" width="300%" x="-1" y="-1"><feGaussianBlur result="blurOut" stdDeviation="2.0"/><feColorMatrix in="blurOut" result="blurOut2" type="matrix" values="0 0 0 0 0 0 0 0 0 0 0 0 0 0 0 0 0 0 .4 0"/><feOffset dx="4.0" dy="4.0" in="blurOut2" result="blurOut3"/><feBlend in="SourceGraphic" in2="blurOut3" mode="normal"/></filter></defs><g><text fill="#000000" font-family="sans-serif" font-size="14" font-weight="bold" lengthAdjust="spacingAndGlyphs" textLength="222" x="165.25" y="22.9951">Name value synchronization</text><line style="stroke: #A80036; stroke-width: 1.0; stroke-dasharray: 5.0,5.0;" x1="26" x2="26" y1="116.5938" y2="369.6563"/><line style="stroke: #A80036; stroke-width: 1.0; stroke-dasharray: 5.0,5.0;" x1="82" x2="82" y1="116.5938" y2="369.6563"/><line style="stroke: #A80036; stroke-width: 1.0; stroke-dasharray: 5.0,5.0;" x1="158" x2="158" y1="116.5938" y2="369.6563"/><line style="stroke: #A80036; stroke-width: 1.0; stroke-dasharray: 5.0,5.0;" x1="341.5" x2="341.5" y1="116.5938" y2="369.6563"/><line style="stroke: #A80036; stroke-width: 1.0; stroke-dasharray: 5.0,5.0;" x1="510.5" x2="510.5" y1="116.5938" y2="369.6563"/><text fill="#000000" font-family="sans-serif" font-size="14" lengthAdjust="spacingAndGlyphs" textLength="31" x="8" y="113.292">user</text><ellipse cx="26.5" cy="43.2969" fill="#FEFECE" filter="url(#fbj7qve)" rx="8" ry="8" style="stroke: #A80036; stroke-width: 2.0;"/><path d="M26.5,51.2969 L26.5,78.2969 M13.5,59.2969 L39.5,59.2969 M26.5,78.2969 L13.5,93.2969 M26.5,78.2969 L39.5,93.2969 " fill="#FEFECE" filter="url(#fbj7qve)" style="stroke: #A80036; stroke-width: 2.0;"/><text fill="#000000" font-family="sans-serif" font-size="14" lengthAdjust="spacingAndGlyphs" textLength="49" x="55" y="113.292">feature</text><ellipse cx="82.5" cy="84.2969" fill="#FEFECE" filter="url(#fbj7qve)" rx="12" ry="12" style="stroke: #A80036; stroke-width: 2.0;"/><polygon fill="#A80036" points="78.5,72.2969,84.5,67.2969,82.5,72.2969,84.5,77.2969,78.5,72.2969" style="stroke: #A80036; stroke-width: 1.0;"/><rect fill="#FEFECE" filter="url(#fbj7qve)" height="30.2969" style="stroke: #A80036; stroke-width: 1.5;" width="72" x="120" y="81.2969"/><text fill="#000000" font-family="sans-serif" font-size="14" lengthAdjust="spacingAndGlyphs" textLength="58" x="127" y="101.292">text field</text><rect fill="#FEFECE" filter="url(#fbj7qve)" height="30.2969" style="stroke: #A80036; stroke-width: 1.5;" width="129" x="275.5" y="81.2969"/><text fill="#000000" font-family="sans-serif" font-size="14" lengthAdjust="spacingAndGlyphs" textLength="115" x="282.5" y="101.292">text field adapter</text><rect fill="#FEFECE" filter="url(#fbj7qve)" height="30.2969" style="stroke: #A80036; stroke-width: 1.5;" width="63" x="477.5" y="81.2969"/><text fill="#000000" font-family="sans-serif" font-size="14" lengthAdjust="spacingAndGlyphs" textLength="49" x="484.5" y="101.292">person</text><polygon fill="#A80036" points="146,143.5938,156,147.5938,146,151.5938,150,147.5938" style="stroke: #A80036; stroke-width: 1.0;"/><line style="stroke: #A80036; stroke-width: 1.0;" x1="26.5" x2="152" y1="147.5938" y2="147.5938"/><text fill="#000000" font-family="sans-serif" font-size="13" lengthAdjust="spacingAndGlyphs" textLength="99" x="33.5" y="142.6606">enters new text</text><polygon fill="#A80036" points="330,172.7266,340,176.7266,330,180.7266,334,176.7266" style="stroke: #A80036; stroke-width: 1.0;"/><line style="stroke: #A80036; stroke-width: 1.0;" x1="158" x2="336" y1="176.7266" y2="176.7266"/><text fill="#000000" font-family="sans-serif" font-size="13" lengthAdjust="spacingAndGlyphs" textLength="160" x="165" y="171.7935">actionPerformed( event )</text><polygon fill="#A80036" points="169,201.8594,159,205.8594,169,209.8594,165,205.8594" style="stroke: #A80036; stroke-width: 1.0;"/><line style="stroke: #A80036; stroke-width: 1.0;" x1="163" x2="341" y1="205.8594" y2="205.8594"/><text fill="#000000" font-family="sans-serif" font-size="13" lengthAdjust="spacingAndGlyphs" textLength="84" x="175" y="200.9263">x = getText()</text><polygon fill="#A80036" points="499,230.9922,509,234.9922,499,238.9922,503,234.9922" style="stroke: #A80036; stroke-width: 1.0;"/><line style="stroke: #A80036; stroke-width: 1.0;" x1="342" x2="505" y1="234.9922" y2="234.9922"/><text fill="#000000" font-family="sans-serif" font-size="13" lengthAdjust="spacingAndGlyphs" textLength="84" x="349" y="230.0591">setName( x )</text><polygon fill="#A80036" points="499,260.125,509,264.125,499,268.125,503,264.125" style="stroke: #A80036; stroke-width: 1.0;"/><line style="stroke: #A80036; stroke-width: 1.0;" x1="82.5" x2="505" y1="264.125" y2="264.125"/><text fill="#000000" font-family="sans-serif" font-size="13" lengthAdjust="spacingAndGlyphs" textLength="106" x="89.5" y="259.1919">setName( "joe" )</text><polygon fill="#A80036" points="353,289.2578,343,293.2578,353,297.2578,349,293.2578" style="stroke: #A80036; stroke-width: 1.0;"/><line style="stroke: #A80036; stroke-width: 1.0;" x1="347" x2="510" y1="293.2578" y2="293.2578"/><text fill="#000000" font-family="sans-serif" font-size="13" lengthAdjust="spacingAndGlyphs" textLength="145" x="359" y="288.3247">valueChanged( event )</text><polygon fill="#A80036" points="499,318.3906,509,322.3906,499,326.3906,503,322.3906" style="stroke: #A80036; stroke-width: 1.0;"/><line style="stroke: #A80036; stroke-width: 1.0;" x1="342" x2="505" y1="322.3906" y2="322.3906"/><text fill="#000000" font-family="sans-serif" font-size="13" lengthAdjust="spacingAndGlyphs" textLength="96" x="349" y="317.4575">x = getName()</text><polygon fill="#A80036" points="169,347.5234,159,351.5234,169,355.5234,165,351.5234" style="stroke: #A80036; stroke-width: 1.0;"/><line style="stroke: #A80036; stroke-width: 1.0;" x1="163" x2="341" y1="351.5234" y2="351.5234"/><text fill="#000000" font-family="sans-serif" font-size="13" lengthAdjust="spacingAndGlyphs" textLength="72" x="175" y="346.5903">setText( x )</text></g></svg>