<?xml version="1.0" encoding="UTF-8" standalone="no"?><svg xmlns="http://www.w3.org/2000/svg" xmlns:xlink="http://www.w3.org/1999/xlink" contentScriptType="application/ecmascript" contentStyleType="text/css" height="462px" preserveAspectRatio="none" style="width:697px;height:462px;" version="1.1" viewBox="0 0 697 462" width="697px" zoomAndPan="magnify"><defs><filter height="300%" id="f1y01npm69f21s" width="300%" x="-1" y="-1"><feGaussianBlur result="blurOut" stdDeviation="2.0"/><feColorMatrix in="blurOut" result="blurOut2" type="matrix" values="0 0 0 0 0 0 0 0 0 0 0 0 0 0 0 0 0 0 .4 0"/><feOffset dx="4.0" dy="4.0" in="blurOut2" result="blurOut3"/><feBlend in="SourceGraphic" in2="blurOut3" mode="normal"/></filter></defs><g><line style="stroke: #A80036; stroke-width: 1.0; stroke-dasharray: 5.0,5.0;" x1="42" x2="42" y1="51.2969" y2="450.0234"/><line style="stroke: #A80036; stroke-width: 1.0; stroke-dasharray: 5.0,5.0;" x1="262.5" x2="262.5" y1="51.2969" y2="450.0234"/><line style="stroke: #A80036; stroke-width: 1.0; stroke-dasharray: 5.0,5.0;" x1="472.5" x2="472.5" y1="51.2969" y2="450.0234"/><line style="stroke: #A80036; stroke-width: 1.0; stroke-dasharray: 5.0,5.0;" x1="575.5" x2="575.5" y1="51.2969" y2="450.0234"/><line style="stroke: #A80036; stroke-width: 1.0; stroke-dasharray: 5.0,5.0;" x1="656.5" x2="656.5" y1="51.2969" y2="450.0234"/><text fill="#000000" font-family="sans-serif" font-size="14" lengthAdjust="spacingAndGlyphs" textLength="62" x="8" y="47.9951">app logic</text><ellipse cx="42" cy="19" fill="#FEFECE" filter="url(#f1y01npm69f21s)" rx="12" ry="12" style="stroke: #A80036; stroke-width: 2.0;"/><polygon fill="#A80036" points="38,7,44,2,42,7,44,12,38,7" style="stroke: #A80036; stroke-width: 1.0;"/><rect fill="#FEFECE" filter="url(#f1y01npm69f21s)" height="30.2969" style="stroke: #A80036; stroke-width: 1.5;" width="129" x="196.5" y="16"/><text fill="#000000" font-family="sans-serif" font-size="14" lengthAdjust="spacingAndGlyphs" textLength="115" x="203.5" y="35.9951">text field adapter</text><rect fill="#FEFECE" filter="url(#f1y01npm69f21s)" height="30.2969" style="stroke: #A80036; stroke-width: 1.5;" width="105" x="418.5" y="16"/><text fill="#000000" font-family="sans-serif" font-size="14" lengthAdjust="spacingAndGlyphs" textLength="91" x="425.5" y="35.9951">person panel</text><rect fill="#FEFECE" filter="url(#f1y01npm69f21s)" height="30.2969" style="stroke: #A80036; stroke-width: 1.5;" width="72" x="537.5" y="16"/><text fill="#000000" font-family="sans-serif" font-size="14" lengthAdjust="spacingAndGlyphs" textLength="58" x="544.5" y="35.9951">text field</text><rect fill="#FEFECE" filter="url(#f1y01npm69f21s)" height="30.2969" style="stroke: #A80036; stroke-width: 1.5;" width="63" x="623.5" y="16"/><text fill="#000000" font-family="sans-serif" font-size="14" lengthAdjust="spacingAndGlyphs" textLength="49" x="630.5" y="35.9951">person</text><polygon fill="#A80036" points="251,78.2969,261,82.2969,251,86.2969,255,82.2969" style="stroke: #A80036; stroke-width: 1.0;"/><line style="stroke: #A80036; stroke-width: 1.0;" x1="42" x2="257" y1="82.2969" y2="82.2969"/><text fill="#000000" font-family="sans-serif" font-size="13" lengthAdjust="spacingAndGlyphs" textLength="197" x="49" y="77.3638">create(person panel, text field)</text><polygon fill="#A80036" points="461,107.4297,471,111.4297,461,115.4297,465,111.4297" style="stroke: #A80036; stroke-width: 1.0;"/><line style="stroke: #A80036; stroke-width: 1.0;" x1="263" x2="467" y1="111.4297" y2="111.4297"/><text fill="#000000" font-family="sans-serif" font-size="13" lengthAdjust="spacingAndGlyphs" textLength="116" x="270" y="106.4966">addListener( this )</text><polygon fill="#A80036" points="563.5,136.5625,573.5,140.5625,563.5,144.5625,567.5,140.5625" style="stroke: #A80036; stroke-width: 1.0;"/><line style="stroke: #A80036; stroke-width: 1.0;" x1="263" x2="569.5" y1="140.5625" y2="140.5625"/><text fill="#000000" font-family="sans-serif" font-size="13" lengthAdjust="spacingAndGlyphs" textLength="156" x="270" y="135.6294">addActionListener( this )</text><polygon fill="#A80036" points="563.5,165.6953,573.5,169.6953,563.5,173.6953,567.5,169.6953" style="stroke: #A80036; stroke-width: 1.0;"/><line style="stroke: #A80036; stroke-width: 1.0;" x1="263" x2="569.5" y1="169.6953" y2="169.6953"/><text fill="#000000" font-family="sans-serif" font-size="13" lengthAdjust="spacingAndGlyphs" textLength="67" x="270" y="164.7622">setText("")</text><polygon fill="#A80036" points="461,194.8281,471,198.8281,461,202.8281,465,198.8281" style="stroke: #A80036; stroke-width: 1.0;"/><line style="stroke: #A80036; stroke-width: 1.0;" x1="42" x2="467" y1="198.8281" y2="198.8281"/><text fill="#000000" font-family="sans-serif" font-size="13" lengthAdjust="spacingAndGlyphs" textLength="126" x="49" y="193.895">setPerson( person )</text><polygon fill="#A80036" points="274,223.9609,264,227.9609,274,231.9609,270,227.9609" style="stroke: #A80036; stroke-width: 1.0;"/><line style="stroke: #A80036; stroke-width: 1.0;" x1="268" x2="472" y1="227.9609" y2="227.9609"/><text fill="#000000" font-family="sans-serif" font-size="13" lengthAdjust="spacingAndGlyphs" textLength="186" x="280" y="223.0278">modelAssigned( null, person)</text><polygon fill="#A80036" points="645,253.0938,655,257.0938,645,261.0938,649,257.0938" style="stroke: #A80036; stroke-width: 1.0;"/><line style="stroke: #A80036; stroke-width: 1.0;" x1="263" x2="651" y1="257.0938" y2="257.0938"/><text fill="#000000" font-family="sans-serif" font-size="13" lengthAdjust="spacingAndGlyphs" textLength="188" x="270" y="252.1606">addObservableListener( this )</text><polygon fill="#A80036" points="645,282.2266,655,286.2266,645,290.2266,649,286.2266" style="stroke: #A80036; stroke-width: 1.0;"/><line style="stroke: #A80036; stroke-width: 1.0;" x1="263" x2="651" y1="286.2266" y2="286.2266"/><text fill="#000000" font-family="sans-serif" font-size="13" lengthAdjust="spacingAndGlyphs" textLength="96" x="270" y="281.2935">x = getName()</text><polygon fill="#A80036" points="563.5,311.3594,573.5,315.3594,563.5,319.3594,567.5,315.3594" style="stroke: #A80036; stroke-width: 1.0;"/><line style="stroke: #A80036; stroke-width: 1.0;" x1="263" x2="569.5" y1="315.3594" y2="315.3594"/><text fill="#000000" font-family="sans-serif" font-size="13" lengthAdjust="spacingAndGlyphs" textLength="72" x="270" y="310.4263">setText( x )</text><polygon fill="#A80036" points="461,340.4922,471,344.4922,461,348.4922,465,344.4922" style="stroke: #A80036; stroke-width: 1.0;"/><line style="stroke: #A80036; stroke-width: 1.0;" x1="42" x2="467" y1="344.4922" y2="344.4922"/><text fill="#000000" font-family="sans-serif" font-size="13" lengthAdjust="spacingAndGlyphs" textLength="104" x="49" y="339.5591">setPerson( null )</text><polygon fill="#A80036" points="274,369.625,264,373.625,274,377.625,270,373.625" style="stroke: #A80036; stroke-width: 1.0;"/><line style="stroke: #A80036; stroke-width: 1.0;" x1="268" x2="472" y1="373.625" y2="373.625"/><text fill="#000000" font-family="sans-serif" font-size="13" lengthAdjust="spacingAndGlyphs" textLength="186" x="280" y="368.6919">modelAssigned( person, null)</text><polygon fill="#A80036" points="645,398.7578,655,402.7578,645,406.7578,649,402.7578" style="stroke: #A80036; stroke-width: 1.0;"/><line style="stroke: #A80036; stroke-width: 1.0;" x1="263" x2="651" y1="402.7578" y2="402.7578"/><text fill="#000000" font-family="sans-serif" font-size="13" lengthAdjust="spacingAndGlyphs" textLength="213" x="270" y="397.8247">removeObservableListener( this )</text><polygon fill="#A80036" points="563.5,427.8906,573.5,431.8906,563.5,435.8906,567.5,431.8906" style="stroke: #A80036; stroke-width: 1.0;"/><line style="stroke: #A80036; stroke-width: 1.0;" x1="263" x2="569.5" y1="431.8906" y2="431.8906"/><text fill="#000000" font-family="sans-serif" font-size="13" lengthAdjust="spacingAndGlyphs" textLength="67" x="270" y="426.9575">setText("")</text><!--
@startuml

hide footbox

control "app logic"

"app logic" -> "text field adapter" : create(person panel, text field)
"text field adapter" -> "person panel" : addListener( this )
"text field adapter" -> "text field" : addActionListener( this )
"text field adapter" -> "text field" : setText("")
"app logic" -> "person panel" : setPerson( person )
"person panel" -> "text field adapter" : modelAssigned( null, person)
"text field adapter" -> person : addObservableListener( this )
"text field adapter" -> person : x = getName()
"text field adapter" -> "text field": setText( x )
"app logic" -> "person panel" : setPerson( null )
"person panel" -> "text field adapter" : modelAssigned( person, null)
"text field adapter" -> person : removeObservableListener( this )
"text field adapter" -> "text field" : setText("")
@enduml

PlantUML version 1.2018.01(Sun Jan 28 18:08:22 UTC 2018)
(APACHE source distribution)
Java Runtime: Java(TM) SE Runtime Environment
JVM: Java HotSpot(TM) 64-Bit Server VM
Java Version: 1.8.0_151-b12
Operating System: Linux
OS Version: 4.14.12-041412-generic
Default Encoding: UTF-8
Language: en
Country: US
--></g></svg>