<?xml version="1.0" encoding="UTF-8" standalone="no"?><svg xmlns="http://www.w3.org/2000/svg" xmlns:xlink="http://www.w3.org/1999/xlink" contentScriptType="application/ecmascript" contentStyleType="text/css" height="481px" preserveAspectRatio="none" style="width:695px;height:481px;" version="1.1" viewBox="0 0 695 481" width="695px" zoomAndPan="magnify"><defs><filter height="300%" id="f0wgw3r" width="300%" x="-1" y="-1"><feGaussianBlur result="blurOut" stdDeviation="2.0"/><feColorMatrix in="blurOut" result="blurOut2" type="matrix" values="0 0 0 0 0 0 0 0 0 0 0 0 0 0 0 0 0 0 .4 0"/><feOffset dx="4.0" dy="4.0" in="blurOut2" result="blurOut3"/><feBlend in="SourceGraphic" in2="blurOut3" mode="normal"/></filter></defs><g><text fill="#000000" font-family="sans-serif" font-size="14" font-weight="bold" lengthAdjust="spacingAndGlyphs" textLength="265" x="216.75" y="22.9951">Maintaining the person reference</text><line style="stroke: #A80036; stroke-width: 1.0; stroke-dasharray: 5.0,5.0;" x1="42" x2="42" y1="81.5938" y2="480.3203"/><line style="stroke: #A80036; stroke-width: 1.0; stroke-dasharray: 5.0,5.0;" x1="262.5" x2="262.5" y1="81.5938" y2="480.3203"/><line style="stroke: #A80036; stroke-width: 1.0; stroke-dasharray: 5.0,5.0;" x1="472.5" x2="472.5" y1="81.5938" y2="480.3203"/><line style="stroke: #A80036; stroke-width: 1.0; stroke-dasharray: 5.0,5.0;" x1="575.5" x2="575.5" y1="81.5938" y2="480.3203"/><line style="stroke: #A80036; stroke-width: 1.0; stroke-dasharray: 5.0,5.0;" x1="656.5" x2="656.5" y1="81.5938" y2="480.3203"/><text fill="#000000" font-family="sans-serif" font-size="14" lengthAdjust="spacingAndGlyphs" textLength="62" x="8" y="78.292">app logic</text><ellipse cx="42" cy="49.2969" fill="#FEFECE" filter="url(#f0wgw3r)" rx="12" ry="12" style="stroke: #A80036; stroke-width: 2.0;"/><polygon fill="#A80036" points="38,37.2969,44,32.2969,42,37.2969,44,42.2969,38,37.2969" style="stroke: #A80036; stroke-width: 1.0;"/><rect fill="#FEFECE" filter="url(#f0wgw3r)" height="30.2969" style="stroke: #A80036; stroke-width: 1.5;" width="129" x="196.5" y="46.2969"/><text fill="#000000" font-family="sans-serif" font-size="14" lengthAdjust="spacingAndGlyphs" textLength="115" x="203.5" y="66.292">text field adapter</text><rect fill="#FEFECE" filter="url(#f0wgw3r)" height="30.2969" style="stroke: #A80036; stroke-width: 1.5;" width="105" x="418.5" y="46.2969"/><text fill="#000000" font-family="sans-serif" font-size="14" lengthAdjust="spacingAndGlyphs" textLength="91" x="425.5" y="66.292">person panel</text><rect fill="#FEFECE" filter="url(#f0wgw3r)" height="30.2969" style="stroke: #A80036; stroke-width: 1.5;" width="72" x="537.5" y="46.2969"/><text fill="#000000" font-family="sans-serif" font-size="14" lengthAdjust="spacingAndGlyphs" textLength="58" x="544.5" y="66.292">text field</text><rect fill="#FEFECE" filter="url(#f0wgw3r)" height="30.2969" style="stroke: #A80036; stroke-width: 1.5;" width="63" x="623.5" y="46.2969"/><text fill="#000000" font-family="sans-serif" font-size="14" lengthAdjust="spacingAndGlyphs" textLength="49" x="630.5" y="66.292">person</text><polygon fill="#A80036" points="251,108.5938,261,112.5938,251,116.5938,255,112.5938" style="stroke: #A80036; stroke-width: 1.0;"/><line style="stroke: #A80036; stroke-width: 1.0;" x1="42" x2="257" y1="112.5938" y2="112.5938"/><text fill="#000000" font-family="sans-serif" font-size="13" lengthAdjust="spacingAndGlyphs" textLength="197" x="49" y="107.6606">create(person panel, text field)</text><polygon fill="#A80036" points="461,137.7266,471,141.7266,461,145.7266,465,141.7266" style="stroke: #A80036; stroke-width: 1.0;"/><line style="stroke: #A80036; stroke-width: 1.0;" x1="263" x2="467" y1="141.7266" y2="141.7266"/><text fill="#000000" font-family="sans-serif" font-size="13" lengthAdjust="spacingAndGlyphs" textLength="116" x="270" y="136.7935">addListener( this )</text><polygon fill="#A80036" points="563.5,166.8594,573.5,170.8594,563.5,174.8594,567.5,170.8594" style="stroke: #A80036; stroke-width: 1.0;"/><line style="stroke: #A80036; stroke-width: 1.0;" x1="263" x2="569.5" y1="170.8594" y2="170.8594"/><text fill="#000000" font-family="sans-serif" font-size="13" lengthAdjust="spacingAndGlyphs" textLength="156" x="270" y="165.9263">addActionListener( this )</text><polygon fill="#A80036" points="563.5,195.9922,573.5,199.9922,563.5,203.9922,567.5,199.9922" style="stroke: #A80036; stroke-width: 1.0;"/><line style="stroke: #A80036; stroke-width: 1.0;" x1="263" x2="569.5" y1="199.9922" y2="199.9922"/><text fill="#000000" font-family="sans-serif" font-size="13" lengthAdjust="spacingAndGlyphs" textLength="67" x="270" y="195.0591">setText("")</text><polygon fill="#A80036" points="461,225.125,471,229.125,461,233.125,465,229.125" style="stroke: #A80036; stroke-width: 1.0;"/><line style="stroke: #A80036; stroke-width: 1.0;" x1="42" x2="467" y1="229.125" y2="229.125"/><text fill="#000000" font-family="sans-serif" font-size="13" lengthAdjust="spacingAndGlyphs" textLength="126" x="49" y="224.1919">setPerson( person )</text><polygon fill="#A80036" points="274,254.2578,264,258.2578,274,262.2578,270,258.2578" style="stroke: #A80036; stroke-width: 1.0;"/><line style="stroke: #A80036; stroke-width: 1.0;" x1="268" x2="472" y1="258.2578" y2="258.2578"/><text fill="#000000" font-family="sans-serif" font-size="13" lengthAdjust="spacingAndGlyphs" textLength="186" x="280" y="253.3247">modelAssigned( null, person)</text><polygon fill="#A80036" points="645,283.3906,655,287.3906,645,291.3906,649,287.3906" style="stroke: #A80036; stroke-width: 1.0;"/><line style="stroke: #A80036; stroke-width: 1.0;" x1="263" x2="651" y1="287.3906" y2="287.3906"/><text fill="#000000" font-family="sans-serif" font-size="13" lengthAdjust="spacingAndGlyphs" textLength="188" x="270" y="282.4575">addObservableListener( this )</text><polygon fill="#A80036" points="645,312.5234,655,316.5234,645,320.5234,649,316.5234" style="stroke: #A80036; stroke-width: 1.0;"/><line style="stroke: #A80036; stroke-width: 1.0;" x1="263" x2="651" y1="316.5234" y2="316.5234"/><text fill="#000000" font-family="sans-serif" font-size="13" lengthAdjust="spacingAndGlyphs" textLength="96" x="270" y="311.5903">x = getName()</text><polygon fill="#A80036" points="563.5,341.6563,573.5,345.6563,563.5,349.6563,567.5,345.6563" style="stroke: #A80036; stroke-width: 1.0;"/><line style="stroke: #A80036; stroke-width: 1.0;" x1="263" x2="569.5" y1="345.6563" y2="345.6563"/><text fill="#000000" font-family="sans-serif" font-size="13" lengthAdjust="spacingAndGlyphs" textLength="72" x="270" y="340.7231">setText( x )</text><polygon fill="#A80036" points="461,370.7891,471,374.7891,461,378.7891,465,374.7891" style="stroke: #A80036; stroke-width: 1.0;"/><line style="stroke: #A80036; stroke-width: 1.0;" x1="42" x2="467" y1="374.7891" y2="374.7891"/><text fill="#000000" font-family="sans-serif" font-size="13" lengthAdjust="spacingAndGlyphs" textLength="104" x="49" y="369.856">setPerson( null )</text><polygon fill="#A80036" points="274,399.9219,264,403.9219,274,407.9219,270,403.9219" style="stroke: #A80036; stroke-width: 1.0;"/><line style="stroke: #A80036; stroke-width: 1.0;" x1="268" x2="472" y1="403.9219" y2="403.9219"/><text fill="#000000" font-family="sans-serif" font-size="13" lengthAdjust="spacingAndGlyphs" textLength="186" x="280" y="398.9888">modelAssigned( person, null)</text><polygon fill="#A80036" points="645,429.0547,655,433.0547,645,437.0547,649,433.0547" style="stroke: #A80036; stroke-width: 1.0;"/><line style="stroke: #A80036; stroke-width: 1.0;" x1="263" x2="651" y1="433.0547" y2="433.0547"/><text fill="#000000" font-family="sans-serif" font-size="13" lengthAdjust="spacingAndGlyphs" textLength="213" x="270" y="428.1216">removeObservableListener( this )</text><polygon fill="#A80036" points="563.5,458.1875,573.5,462.1875,563.5,466.1875,567.5,462.1875" style="stroke: #A80036; stroke-width: 1.0;"/><line style="stroke: #A80036; stroke-width: 1.0;" x1="263" x2="569.5" y1="462.1875" y2="462.1875"/><text fill="#000000" font-family="sans-serif" font-size="13" lengthAdjust="spacingAndGlyphs" textLength="67" x="270" y="457.2544">setText("")</text></g></svg>