<?xml version="1.0" encoding="UTF-8" standalone="no"?><svg xmlns="http://www.w3.org/2000/svg" xmlns:xlink="http://www.w3.org/1999/xlink" contentScriptType="application/ecmascript" contentStyleType="text/css" height="569px" preserveAspectRatio="none" style="width:739px;height:569px;" version="1.1" viewBox="0 0 739 569" width="739px" zoomAndPan="magnify"><defs><filter height="300%" id="f19g9vj" width="300%" x="-1" y="-1"><feGaussianBlur result="blurOut" stdDeviation="2.0"/><feColorMatrix in="blurOut" result="blurOut2" type="matrix" values="0 0 0 0 0 0 0 0 0 0 0 0 0 0 0 0 0 0 .4 0"/><feOffset dx="4.0" dy="4.0" in="blurOut2" result="blurOut3"/><feBlend in="SourceGraphic" in2="blurOut3" mode="normal"/></filter></defs><g><line style="stroke: #A80036; stroke-width: 1.0; stroke-dasharray: 5.0,5.0;" x1="37" x2="37" y1="86.2969" y2="485.0234"/><line style="stroke: #A80036; stroke-width: 1.0; stroke-dasharray: 5.0,5.0;" x1="106" x2="106" y1="86.2969" y2="485.0234"/><line style="stroke: #A80036; stroke-width: 1.0; stroke-dasharray: 5.0,5.0;" x1="324.5" x2="324.5" y1="86.2969" y2="485.0234"/><line style="stroke: #A80036; stroke-width: 1.0; stroke-dasharray: 5.0,5.0;" x1="539.5" x2="539.5" y1="86.2969" y2="485.0234"/><line style="stroke: #A80036; stroke-width: 1.0; stroke-dasharray: 5.0,5.0;" x1="668.5" x2="668.5" y1="86.2969" y2="485.0234"/><text fill="#000000" font-family="sans-serif" font-size="14" lengthAdjust="spacingAndGlyphs" textLength="52" x="8" y="82.9951">context</text><ellipse cx="37" cy="13" fill="#FEFECE" filter="url(#f19g9vj)" rx="8" ry="8" style="stroke: #A80036; stroke-width: 2.0;"/><path d="M37,21 L37,48 M24,29 L50,29 M37,48 L24,63 M37,48 L50,63 " fill="#FEFECE" filter="url(#f19g9vj)" style="stroke: #A80036; stroke-width: 2.0;"/><text fill="#000000" font-family="sans-serif" font-size="14" lengthAdjust="spacingAndGlyphs" textLength="52" x="8" y="497.0186">context</text><ellipse cx="37" cy="510.3203" fill="#FEFECE" filter="url(#f19g9vj)" rx="8" ry="8" style="stroke: #A80036; stroke-width: 2.0;"/><path d="M37,518.3203 L37,545.3203 M24,526.3203 L50,526.3203 M37,545.3203 L24,560.3203 M37,545.3203 L50,560.3203 " fill="#FEFECE" filter="url(#f19g9vj)" style="stroke: #A80036; stroke-width: 2.0;"/><rect fill="#FEFECE" filter="url(#f19g9vj)" height="30.2969" style="stroke: #A80036; stroke-width: 1.5;" width="57" x="76" y="51"/><text fill="#000000" font-family="sans-serif" font-size="14" lengthAdjust="spacingAndGlyphs" textLength="43" x="83" y="70.9951">model</text><rect fill="#FEFECE" filter="url(#f19g9vj)" height="30.2969" style="stroke: #A80036; stroke-width: 1.5;" width="57" x="76" y="484.0234"/><text fill="#000000" font-family="sans-serif" font-size="14" lengthAdjust="spacingAndGlyphs" textLength="43" x="83" y="504.0186">model</text><rect fill="#FEFECE" filter="url(#f19g9vj)" height="30.2969" style="stroke: #A80036; stroke-width: 1.5;" width="118" x="263.5" y="51"/><text fill="#000000" font-family="sans-serif" font-size="14" lengthAdjust="spacingAndGlyphs" textLength="104" x="270.5" y="70.9951">aspect adapter</text><rect fill="#FEFECE" filter="url(#f19g9vj)" height="30.2969" style="stroke: #A80036; stroke-width: 1.5;" width="118" x="263.5" y="484.0234"/><text fill="#000000" font-family="sans-serif" font-size="14" lengthAdjust="spacingAndGlyphs" textLength="104" x="270.5" y="504.0186">aspect adapter</text><rect fill="#FEFECE" filter="url(#f19g9vj)" height="30.2969" style="stroke: #A80036; stroke-width: 1.5;" width="104" x="485.5" y="51"/><text fill="#000000" font-family="sans-serif" font-size="14" lengthAdjust="spacingAndGlyphs" textLength="90" x="492.5" y="70.9951">model owner</text><rect fill="#FEFECE" filter="url(#f19g9vj)" height="30.2969" style="stroke: #A80036; stroke-width: 1.5;" width="104" x="485.5" y="484.0234"/><text fill="#000000" font-family="sans-serif" font-size="14" lengthAdjust="spacingAndGlyphs" textLength="90" x="492.5" y="504.0186">model owner</text><rect fill="#FEFECE" filter="url(#f19g9vj)" height="30.2969" style="stroke: #A80036; stroke-width: 1.5;" width="127" x="603.5" y="51"/><text fill="#000000" font-family="sans-serif" font-size="14" lengthAdjust="spacingAndGlyphs" textLength="113" x="610.5" y="70.9951">aspect projector</text><rect fill="#FEFECE" filter="url(#f19g9vj)" height="30.2969" style="stroke: #A80036; stroke-width: 1.5;" width="127" x="603.5" y="484.0234"/><text fill="#000000" font-family="sans-serif" font-size="14" lengthAdjust="spacingAndGlyphs" textLength="113" x="610.5" y="504.0186">aspect projector</text><polygon fill="#A80036" points="312.5,113.2969,322.5,117.2969,312.5,121.2969,316.5,117.2969" style="stroke: #A80036; stroke-width: 1.0;"/><line style="stroke: #A80036; stroke-width: 1.0;" x1="106.5" x2="318.5" y1="117.2969" y2="117.2969"/><text fill="#000000" font-family="sans-serif" font-size="13" lengthAdjust="spacingAndGlyphs" textLength="184" x="113.5" y="112.3638">create(model owner, aspect)</text><polygon fill="#A80036" points="527.5,142.4297,537.5,146.4297,527.5,150.4297,531.5,146.4297" style="stroke: #A80036; stroke-width: 1.0;"/><line style="stroke: #A80036; stroke-width: 1.0;" x1="324.5" x2="533.5" y1="146.4297" y2="146.4297"/><text fill="#000000" font-family="sans-serif" font-size="13" lengthAdjust="spacingAndGlyphs" textLength="191" x="331.5" y="141.4966">listen to model value changes</text><polygon fill="#A80036" points="657,171.5625,667,175.5625,657,179.5625,661,175.5625" style="stroke: #A80036; stroke-width: 1.0;"/><line style="stroke: #A80036; stroke-width: 1.0;" x1="324.5" x2="663" y1="175.5625" y2="175.5625"/><text fill="#000000" font-family="sans-serif" font-size="13" lengthAdjust="spacingAndGlyphs" textLength="153" x="331.5" y="170.6294">listen to projected value</text><polygon fill="#A80036" points="657,200.6953,667,204.6953,657,208.6953,661,204.6953" style="stroke: #A80036; stroke-width: 1.0;"/><line style="stroke: #A80036; stroke-width: 1.0;" x1="324.5" x2="663" y1="204.6953" y2="204.6953"/><text fill="#000000" font-family="sans-serif" font-size="13" lengthAdjust="spacingAndGlyphs" textLength="142" x="331.5" y="199.7622">set no projected value</text><polygon fill="#A80036" points="527.5,229.8281,537.5,233.8281,527.5,237.8281,531.5,233.8281" style="stroke: #A80036; stroke-width: 1.0;"/><line style="stroke: #A80036; stroke-width: 1.0;" x1="37" x2="533.5" y1="233.8281" y2="233.8281"/><text fill="#000000" font-family="sans-serif" font-size="13" lengthAdjust="spacingAndGlyphs" textLength="122" x="44" y="228.895">set model( model )</text><polygon fill="#A80036" points="335.5,258.9609,325.5,262.9609,335.5,266.9609,331.5,262.9609" style="stroke: #A80036; stroke-width: 1.0;"/><line style="stroke: #A80036; stroke-width: 1.0;" x1="329.5" x2="538.5" y1="262.9609" y2="262.9609"/><text fill="#000000" font-family="sans-serif" font-size="13" lengthAdjust="spacingAndGlyphs" textLength="184" x="341.5" y="258.0278">notify of model value change</text><polygon fill="#A80036" points="117.5,288.0938,107.5,292.0938,117.5,296.0938,113.5,292.0938" style="stroke: #A80036; stroke-width: 1.0;"/><line style="stroke: #A80036; stroke-width: 1.0;" x1="111.5" x2="323.5" y1="292.0938" y2="292.0938"/><text fill="#000000" font-family="sans-serif" font-size="13" lengthAdjust="spacingAndGlyphs" textLength="194" x="123.5" y="287.1606">listen to aspect value changes</text><polygon fill="#A80036" points="117.5,317.2266,107.5,321.2266,117.5,325.2266,113.5,321.2266" style="stroke: #A80036; stroke-width: 1.0;"/><line style="stroke: #A80036; stroke-width: 1.0;" x1="111.5" x2="323.5" y1="321.2266" y2="321.2266"/><text fill="#000000" font-family="sans-serif" font-size="13" lengthAdjust="spacingAndGlyphs" textLength="132" x="123.5" y="316.2935">v = get aspect value</text><polygon fill="#A80036" points="657,346.3594,667,350.3594,657,354.3594,661,350.3594" style="stroke: #A80036; stroke-width: 1.0;"/><line style="stroke: #A80036; stroke-width: 1.0;" x1="324.5" x2="663" y1="350.3594" y2="350.3594"/><text fill="#000000" font-family="sans-serif" font-size="13" lengthAdjust="spacingAndGlyphs" textLength="147" x="331.5" y="345.4263">set projected value( v )</text><polygon fill="#A80036" points="527.5,375.4922,537.5,379.4922,527.5,383.4922,531.5,379.4922" style="stroke: #A80036; stroke-width: 1.0;"/><line style="stroke: #A80036; stroke-width: 1.0;" x1="37" x2="533.5" y1="379.4922" y2="379.4922"/><text fill="#000000" font-family="sans-serif" font-size="13" lengthAdjust="spacingAndGlyphs" textLength="104" x="44" y="374.5591">set model( null )</text><polygon fill="#A80036" points="335.5,404.625,325.5,408.625,335.5,412.625,331.5,408.625" style="stroke: #A80036; stroke-width: 1.0;"/><line style="stroke: #A80036; stroke-width: 1.0;" x1="329.5" x2="538.5" y1="408.625" y2="408.625"/><text fill="#000000" font-family="sans-serif" font-size="13" lengthAdjust="spacingAndGlyphs" textLength="184" x="341.5" y="403.6919">notify of model value change</text><polygon fill="#A80036" points="117.5,433.7578,107.5,437.7578,117.5,441.7578,113.5,437.7578" style="stroke: #A80036; stroke-width: 1.0;"/><line style="stroke: #A80036; stroke-width: 1.0;" x1="111.5" x2="323.5" y1="437.7578" y2="437.7578"/><text fill="#000000" font-family="sans-serif" font-size="13" lengthAdjust="spacingAndGlyphs" textLength="152" x="123.5" y="432.8247">unlisten to aspect value</text><polygon fill="#A80036" points="657,462.8906,667,466.8906,657,470.8906,661,466.8906" style="stroke: #A80036; stroke-width: 1.0;"/><line style="stroke: #A80036; stroke-width: 1.0;" x1="324.5" x2="663" y1="466.8906" y2="466.8906"/><text fill="#000000" font-family="sans-serif" font-size="13" lengthAdjust="spacingAndGlyphs" textLength="142" x="331.5" y="461.9575">set no projected value</text></g></svg>