<?xml version="1.0" encoding="UTF-8" standalone="no"?>
<!DOCTYPE svg PUBLIC "-//W3C//DTD SVG 1.1//EN"
 "http://www.w3.org/Graphics/SVG/1.1/DTD/svg11.dtd">
<!-- Generated by graphviz version 2.36.0 (20140111.2315)
 -->
<!-- Title: %3 Pages: 1 -->
<svg width="430pt" height="328pt"
 viewBox="0.00 0.00 429.79 328.00" xmlns="http://www.w3.org/2000/svg" xmlns:xlink="http://www.w3.org/1999/xlink">
<g id="graph0" class="graph" transform="scale(1 1) rotate(0) translate(4 324)">
<title>%3</title>
<polygon fill="white" stroke="none" points="-4,4 -4,-324 425.793,-324 425.793,4 -4,4"/>
<!-- i1 -->
<g id="node1" class="node"><title>i1</title>
<polygon fill="none" stroke="black" points="228.793,-124 174.793,-124 174.793,-88 228.793,-88 228.793,-124"/>
<text text-anchor="middle" x="201.793" y="-102.3" font-family="Helvetica,sans-Serif" font-size="14.00">model</text>
</g>
<!-- i4 -->
<g id="node4" class="node"><title>i4</title>
<polygon fill="none" stroke="black" points="294.043,-36 209.543,-36 209.543,-0 294.043,-0 294.043,-36"/>
<text text-anchor="middle" x="251.793" y="-14.3" font-family="Helvetica,sans-Serif" font-size="14.00">(sub)model</text>
</g>
<!-- i1&#45;&gt;i4 -->
<g id="edge2" class="edge"><title>i1&#45;&gt;i4</title>
<path fill="none" stroke="black" d="M211.911,-87.5966C219.005,-75.3939 228.614,-58.867 236.622,-45.093"/>
<polygon fill="black" stroke="black" points="239.86,-46.4883 241.86,-36.084 233.808,-42.9699 239.86,-46.4883"/>
<text text-anchor="middle" x="251.293" y="-58.3" font-family="Helvetica,sans-Serif" font-size="14.00">knows</text>
</g>
<!-- i2 -->
<g id="node2" class="node"><title>i2</title>
<polygon fill="none" stroke="black" points="265.043,-232 170.543,-232 170.543,-196 265.043,-196 265.043,-232"/>
<text text-anchor="middle" x="217.793" y="-210.3" font-family="Helvetica,sans-Serif" font-size="14.00">model owner</text>
</g>
<!-- i2&#45;&gt;i1 -->
<g id="edge1" class="edge"><title>i2&#45;&gt;i1</title>
<path fill="none" stroke="black" d="M205.72,-195.974C202.493,-190.493 199.445,-184.223 197.793,-178 194.042,-163.877 194.615,-147.636 196.314,-134.255"/>
<polygon fill="black" stroke="black" points="199.795,-134.648 197.858,-124.232 192.877,-133.582 199.795,-134.648"/>
<text text-anchor="middle" x="217.293" y="-156.3" font-family="Helvetica,sans-Serif" font-size="14.00">knows</text>
</g>
<!-- i3 -->
<g id="node3" class="node"><title>i3</title>
<polygon fill="none" stroke="black" points="215.043,-320 90.5426,-320 90.5426,-284 215.043,-284 215.043,-320"/>
<text text-anchor="middle" x="152.793" y="-298.3" font-family="Helvetica,sans-Serif" font-size="14.00">submodel adapter</text>
</g>
<!-- i3&#45;&gt;i1 -->
<g id="edge3" class="edge"><title>i3&#45;&gt;i1</title>
<path fill="none" stroke="black" d="M90.3281,-283.874C39.6668,-266.613 -19.3755,-236.708 6.79256,-196 41.6827,-141.723 118.762,-120.143 164.878,-111.866"/>
<polygon fill="black" stroke="black" points="165.493,-115.312 174.778,-110.208 164.337,-108.408 165.493,-115.312"/>
<text text-anchor="middle" x="83.7926" y="-217.8" font-family="Helvetica,sans-Serif" font-size="14.00">observes submodel value</text>
<text text-anchor="middle" x="83.7926" y="-202.8" font-family="Helvetica,sans-Serif" font-size="14.00">gets submodel value</text>
</g>
<!-- i3&#45;&gt;i2 -->
<g id="edge4" class="edge"><title>i3&#45;&gt;i2</title>
<path fill="none" stroke="black" d="M149.004,-283.731C147.656,-273.243 147.733,-259.996 153.793,-250 156.473,-245.579 159.926,-241.677 163.838,-238.242"/>
<polygon fill="black" stroke="black" points="165.971,-241.018 171.842,-232.198 161.752,-235.431 165.971,-241.018"/>
<text text-anchor="middle" x="220.293" y="-254.3" font-family="Helvetica,sans-Serif" font-size="14.00">observes model value</text>
</g>
<!-- i5 -->
<g id="node5" class="node"><title>i5</title>
<polygon fill="none" stroke="black" points="371.043,-178 246.543,-178 246.543,-142 371.043,-142 371.043,-178"/>
<text text-anchor="middle" x="308.793" y="-156.3" font-family="Helvetica,sans-Serif" font-size="14.00">(sub)model owner</text>
</g>
<!-- i3&#45;&gt;i5 -->
<g id="edge5" class="edge"><title>i3&#45;&gt;i5</title>
<path fill="none" stroke="black" d="M215.348,-298.637C240.751,-294.476 268.388,-285.328 286.793,-266 306.507,-245.297 310.489,-211.673 310.518,-188.065"/>
<polygon fill="black" stroke="black" points="314.016,-187.926 310.295,-178.006 307.017,-188.081 314.016,-187.926"/>
<text text-anchor="middle" x="359.793" y="-254.3" font-family="Helvetica,sans-Serif" font-size="14.00">sets submodel value</text>
</g>
<!-- i5&#45;&gt;i4 -->
<g id="edge6" class="edge"><title>i5&#45;&gt;i4</title>
<path fill="none" stroke="black" d="M304.118,-141.842C298.084,-120.691 286.69,-83.8792 272.793,-54 271.388,-50.9801 269.791,-47.8894 268.12,-44.8556"/>
<polygon fill="black" stroke="black" points="271.055,-42.939 263.003,-36.0528 265.003,-46.4572 271.055,-42.939"/>
<text text-anchor="middle" x="318.293" y="-102.3" font-family="Helvetica,sans-Serif" font-size="14.00">knows</text>
</g>
</g>
</svg>
