<?xml version="1.0" encoding="UTF-8" standalone="no"?><svg xmlns="http://www.w3.org/2000/svg" xmlns:xlink="http://www.w3.org/1999/xlink" contentScriptType="application/ecmascript" contentStyleType="text/css" height="451px" preserveAspectRatio="none" style="width:823px;height:451px;" version="1.1" viewBox="0 0 823 451" width="823px" zoomAndPan="magnify"><defs><filter height="300%" id="f1q981y" width="300%" x="-1" y="-1"><feGaussianBlur result="blurOut" stdDeviation="2.0"/><feColorMatrix in="blurOut" result="blurOut2" type="matrix" values="0 0 0 0 0 0 0 0 0 0 0 0 0 0 0 0 0 0 .4 0"/><feOffset dx="4.0" dy="4.0" in="blurOut2" result="blurOut3"/><feBlend in="SourceGraphic" in2="blurOut3" mode="normal"/></filter></defs><g><line style="stroke: #A80036; stroke-width: 1.0; stroke-dasharray: 5.0,5.0;" x1="42" x2="42" y1="51.2969" y2="450.0234"/><line style="stroke: #A80036; stroke-width: 1.0; stroke-dasharray: 5.0,5.0;" x1="188" x2="188" y1="51.2969" y2="450.0234"/><line style="stroke: #A80036; stroke-width: 1.0; stroke-dasharray: 5.0,5.0;" x1="396" x2="396" y1="51.2969" y2="450.0234"/><line style="stroke: #A80036; stroke-width: 1.0; stroke-dasharray: 5.0,5.0;" x1="633.5" x2="633.5" y1="51.2969" y2="450.0234"/><line style="stroke: #A80036; stroke-width: 1.0; stroke-dasharray: 5.0,5.0;" x1="746.5" x2="746.5" y1="51.2969" y2="450.0234"/><text fill="#000000" font-family="sans-serif" font-size="14" lengthAdjust="spacingAndGlyphs" textLength="62" x="8" y="47.9951">app logic</text><ellipse cx="42" cy="19" fill="#FEFECE" filter="url(#f1q981y)" rx="12" ry="12" style="stroke: #A80036; stroke-width: 2.0;"/><polygon fill="#A80036" points="38,7,44,2,42,7,44,12,38,7" style="stroke: #A80036; stroke-width: 1.0;"/><rect fill="#FEFECE" filter="url(#f1q981y)" height="30.2969" style="stroke: #A80036; stroke-width: 1.5;" width="104" x="134" y="16"/><text fill="#000000" font-family="sans-serif" font-size="14" lengthAdjust="spacingAndGlyphs" textLength="90" x="141" y="35.9951">model owner</text><rect fill="#FEFECE" filter="url(#f1q981y)" height="30.2969" style="stroke: #A80036; stroke-width: 1.5;" width="140" x="324" y="16"/><text fill="#000000" font-family="sans-serif" font-size="14" lengthAdjust="spacingAndGlyphs" textLength="126" x="331" y="35.9951">submodel adapter</text><rect fill="#FEFECE" filter="url(#f1q981y)" height="30.2969" style="stroke: #A80036; stroke-width: 1.5;" width="57" x="603.5" y="16"/><text fill="#000000" font-family="sans-serif" font-size="14" lengthAdjust="spacingAndGlyphs" textLength="43" x="610.5" y="35.9951">model</text><rect fill="#FEFECE" filter="url(#f1q981y)" height="30.2969" style="stroke: #A80036; stroke-width: 1.5;" width="140" x="674.5" y="16"/><text fill="#000000" font-family="sans-serif" font-size="14" lengthAdjust="spacingAndGlyphs" textLength="126" x="681.5" y="35.9951">(sub)model owner</text><polygon fill="#A80036" points="176,78.2969,186,82.2969,176,86.2969,180,82.2969" style="stroke: #A80036; stroke-width: 1.0;"/><line style="stroke: #A80036; stroke-width: 1.0;" x1="42" x2="182" y1="82.2969" y2="82.2969"/><text fill="#000000" font-family="sans-serif" font-size="13" lengthAdjust="spacingAndGlyphs" textLength="122" x="49" y="77.3638">set model( model )</text><polygon fill="#A80036" points="384,107.4297,394,111.4297,384,115.4297,388,111.4297" style="stroke: #A80036; stroke-width: 1.0;"/><line style="stroke: #A80036; stroke-width: 1.0;" x1="188" x2="390" y1="111.4297" y2="111.4297"/><text fill="#000000" font-family="sans-serif" font-size="13" lengthAdjust="spacingAndGlyphs" textLength="184" x="195" y="106.4966">notify of model value change</text><polygon fill="#A80036" points="622,136.5625,632,140.5625,622,144.5625,626,140.5625" style="stroke: #A80036; stroke-width: 1.0;"/><line style="stroke: #A80036; stroke-width: 1.0;" x1="396" x2="628" y1="140.5625" y2="140.5625"/><text fill="#000000" font-family="sans-serif" font-size="13" lengthAdjust="spacingAndGlyphs" textLength="214" x="403" y="135.6294">listen to submodel value changes</text><polygon fill="#A80036" points="622,165.6953,632,169.6953,622,173.6953,626,169.6953" style="stroke: #A80036; stroke-width: 1.0;"/><line style="stroke: #A80036; stroke-width: 1.0;" x1="396" x2="628" y1="169.6953" y2="169.6953"/><text fill="#000000" font-family="sans-serif" font-size="13" lengthAdjust="spacingAndGlyphs" textLength="114" x="403" y="164.7622">v = get submodel</text><polygon fill="#A80036" points="734.5,194.8281,744.5,198.8281,734.5,202.8281,738.5,198.8281" style="stroke: #A80036; stroke-width: 1.0;"/><line style="stroke: #A80036; stroke-width: 1.0;" x1="396" x2="740.5" y1="198.8281" y2="198.8281"/><text fill="#000000" font-family="sans-serif" font-size="13" lengthAdjust="spacingAndGlyphs" textLength="89" x="403" y="193.895">set model( v )</text><polygon fill="#A80036" points="176,223.9609,186,227.9609,176,231.9609,180,227.9609" style="stroke: #A80036; stroke-width: 1.0;"/><line style="stroke: #A80036; stroke-width: 1.0;" x1="42" x2="182" y1="227.9609" y2="227.9609"/><text fill="#000000" font-family="sans-serif" font-size="13" lengthAdjust="spacingAndGlyphs" textLength="104" x="49" y="223.0278">set model( null )</text><polygon fill="#A80036" points="384,253.0938,394,257.0938,384,261.0938,388,257.0938" style="stroke: #A80036; stroke-width: 1.0;"/><line style="stroke: #A80036; stroke-width: 1.0;" x1="188" x2="390" y1="257.0938" y2="257.0938"/><text fill="#000000" font-family="sans-serif" font-size="13" lengthAdjust="spacingAndGlyphs" textLength="184" x="195" y="252.1606">notify of model value change</text><polygon fill="#A80036" points="622,282.2266,632,286.2266,622,290.2266,626,286.2266" style="stroke: #A80036; stroke-width: 1.0;"/><line style="stroke: #A80036; stroke-width: 1.0;" x1="396" x2="628" y1="286.2266" y2="286.2266"/><text fill="#000000" font-family="sans-serif" font-size="13" lengthAdjust="spacingAndGlyphs" textLength="172" x="403" y="281.2935">unlisten to submodel value</text><polygon fill="#A80036" points="734.5,311.3594,744.5,315.3594,734.5,319.3594,738.5,315.3594" style="stroke: #A80036; stroke-width: 1.0;"/><line style="stroke: #A80036; stroke-width: 1.0;" x1="396" x2="740.5" y1="315.3594" y2="315.3594"/><text fill="#000000" font-family="sans-serif" font-size="13" lengthAdjust="spacingAndGlyphs" textLength="104" x="403" y="310.4263">set model( null )</text><polygon fill="#A80036" points="622,340.4922,632,344.4922,622,348.4922,626,344.4922" style="stroke: #A80036; stroke-width: 1.0;"/><line style="stroke: #A80036; stroke-width: 1.0;" x1="42" x2="628" y1="344.4922" y2="344.4922"/><text fill="#000000" font-family="sans-serif" font-size="13" lengthAdjust="spacingAndGlyphs" textLength="116" x="49" y="339.5591">set submodel ( v )</text><polygon fill="#A80036" points="407,369.625,397,373.625,407,377.625,403,373.625" style="stroke: #A80036; stroke-width: 1.0;"/><line style="stroke: #A80036; stroke-width: 1.0;" x1="401" x2="633" y1="373.625" y2="373.625"/><text fill="#000000" font-family="sans-serif" font-size="13" lengthAdjust="spacingAndGlyphs" textLength="156" x="413" y="368.6919">notify of submodel value</text><polygon fill="#A80036" points="622,398.7578,632,402.7578,622,406.7578,626,402.7578" style="stroke: #A80036; stroke-width: 1.0;"/><line style="stroke: #A80036; stroke-width: 1.0;" x1="396" x2="628" y1="402.7578" y2="402.7578"/><text fill="#000000" font-family="sans-serif" font-size="13" lengthAdjust="spacingAndGlyphs" textLength="114" x="403" y="397.8247">v = get submodel</text><polygon fill="#A80036" points="734.5,427.8906,744.5,431.8906,734.5,435.8906,738.5,431.8906" style="stroke: #A80036; stroke-width: 1.0;"/><line style="stroke: #A80036; stroke-width: 1.0;" x1="396" x2="740.5" y1="431.8906" y2="431.8906"/><text fill="#000000" font-family="sans-serif" font-size="13" lengthAdjust="spacingAndGlyphs" textLength="89" x="403" y="426.9575">set model( v )</text></g></svg>