<?xml version="1.0" encoding="UTF-8" standalone="no"?><svg xmlns="http://www.w3.org/2000/svg" xmlns:xlink="http://www.w3.org/1999/xlink" contentScriptType="application/ecmascript" contentStyleType="text/css" height="516px" preserveAspectRatio="none" style="width:818px;height:516px;" version="1.1" viewBox="0 0 818 516" width="818px" zoomAndPan="magnify"><defs><filter height="300%" id="fwo5rc8" width="300%" x="-1" y="-1"><feGaussianBlur result="blurOut" stdDeviation="2.0"/><feColorMatrix in="blurOut" result="blurOut2" type="matrix" values="0 0 0 0 0 0 0 0 0 0 0 0 0 0 0 0 0 0 .4 0"/><feOffset dx="4.0" dy="4.0" in="blurOut2" result="blurOut3"/><feBlend in="SourceGraphic" in2="blurOut3" mode="normal"/></filter></defs><g><text fill="#000000" font-family="sans-serif" font-size="14" font-weight="bold" lengthAdjust="spacingAndGlyphs" textLength="265" x="278.25" y="22.9951">Submodel owner synchronization</text><line style="stroke: #A80036; stroke-width: 1.0; stroke-dasharray: 5.0,5.0;" x1="37" x2="37" y1="116.5938" y2="515.3203"/><line style="stroke: #A80036; stroke-width: 1.0; stroke-dasharray: 5.0,5.0;" x1="183" x2="183" y1="116.5938" y2="515.3203"/><line style="stroke: #A80036; stroke-width: 1.0; stroke-dasharray: 5.0,5.0;" x1="391" x2="391" y1="116.5938" y2="515.3203"/><line style="stroke: #A80036; stroke-width: 1.0; stroke-dasharray: 5.0,5.0;" x1="628.5" x2="628.5" y1="116.5938" y2="515.3203"/><line style="stroke: #A80036; stroke-width: 1.0; stroke-dasharray: 5.0,5.0;" x1="741.5" x2="741.5" y1="116.5938" y2="515.3203"/><text fill="#000000" font-family="sans-serif" font-size="14" lengthAdjust="spacingAndGlyphs" textLength="52" x="8" y="113.292">context</text><ellipse cx="37" cy="43.2969" fill="#FEFECE" filter="url(#fwo5rc8)" rx="8" ry="8" style="stroke: #A80036; stroke-width: 2.0;"/><path d="M37,51.2969 L37,78.2969 M24,59.2969 L50,59.2969 M37,78.2969 L24,93.2969 M37,78.2969 L50,93.2969 " fill="#FEFECE" filter="url(#fwo5rc8)" style="stroke: #A80036; stroke-width: 2.0;"/><rect fill="#FEFECE" filter="url(#fwo5rc8)" height="30.2969" style="stroke: #A80036; stroke-width: 1.5;" width="104" x="129" y="81.2969"/><text fill="#000000" font-family="sans-serif" font-size="14" lengthAdjust="spacingAndGlyphs" textLength="90" x="136" y="101.292">model owner</text><rect fill="#FEFECE" filter="url(#fwo5rc8)" height="30.2969" style="stroke: #A80036; stroke-width: 1.5;" width="140" x="319" y="81.2969"/><text fill="#000000" font-family="sans-serif" font-size="14" lengthAdjust="spacingAndGlyphs" textLength="126" x="326" y="101.292">submodel adapter</text><rect fill="#FEFECE" filter="url(#fwo5rc8)" height="30.2969" style="stroke: #A80036; stroke-width: 1.5;" width="57" x="598.5" y="81.2969"/><text fill="#000000" font-family="sans-serif" font-size="14" lengthAdjust="spacingAndGlyphs" textLength="43" x="605.5" y="101.292">model</text><rect fill="#FEFECE" filter="url(#fwo5rc8)" height="30.2969" style="stroke: #A80036; stroke-width: 1.5;" width="140" x="669.5" y="81.2969"/><text fill="#000000" font-family="sans-serif" font-size="14" lengthAdjust="spacingAndGlyphs" textLength="126" x="676.5" y="101.292">(sub)model owner</text><polygon fill="#A80036" points="171,143.5938,181,147.5938,171,151.5938,175,147.5938" style="stroke: #A80036; stroke-width: 1.0;"/><line style="stroke: #A80036; stroke-width: 1.0;" x1="37" x2="177" y1="147.5938" y2="147.5938"/><text fill="#000000" font-family="sans-serif" font-size="13" lengthAdjust="spacingAndGlyphs" textLength="122" x="44" y="142.6606">set model( model )</text><polygon fill="#A80036" points="379,172.7266,389,176.7266,379,180.7266,383,176.7266" style="stroke: #A80036; stroke-width: 1.0;"/><line style="stroke: #A80036; stroke-width: 1.0;" x1="183" x2="385" y1="176.7266" y2="176.7266"/><text fill="#000000" font-family="sans-serif" font-size="13" lengthAdjust="spacingAndGlyphs" textLength="184" x="190" y="171.7935">notify of model value change</text><polygon fill="#A80036" points="617,201.8594,627,205.8594,617,209.8594,621,205.8594" style="stroke: #A80036; stroke-width: 1.0;"/><line style="stroke: #A80036; stroke-width: 1.0;" x1="391" x2="623" y1="205.8594" y2="205.8594"/><text fill="#000000" font-family="sans-serif" font-size="13" lengthAdjust="spacingAndGlyphs" textLength="214" x="398" y="200.9263">listen to submodel value changes</text><polygon fill="#A80036" points="617,230.9922,627,234.9922,617,238.9922,621,234.9922" style="stroke: #A80036; stroke-width: 1.0;"/><line style="stroke: #A80036; stroke-width: 1.0;" x1="391" x2="623" y1="234.9922" y2="234.9922"/><text fill="#000000" font-family="sans-serif" font-size="13" lengthAdjust="spacingAndGlyphs" textLength="114" x="398" y="230.0591">v = get submodel</text><polygon fill="#A80036" points="729.5,260.125,739.5,264.125,729.5,268.125,733.5,264.125" style="stroke: #A80036; stroke-width: 1.0;"/><line style="stroke: #A80036; stroke-width: 1.0;" x1="391" x2="735.5" y1="264.125" y2="264.125"/><text fill="#000000" font-family="sans-serif" font-size="13" lengthAdjust="spacingAndGlyphs" textLength="89" x="398" y="259.1919">set model( v )</text><polygon fill="#A80036" points="171,289.2578,181,293.2578,171,297.2578,175,293.2578" style="stroke: #A80036; stroke-width: 1.0;"/><line style="stroke: #A80036; stroke-width: 1.0;" x1="37" x2="177" y1="293.2578" y2="293.2578"/><text fill="#000000" font-family="sans-serif" font-size="13" lengthAdjust="spacingAndGlyphs" textLength="104" x="44" y="288.3247">set model( null )</text><polygon fill="#A80036" points="379,318.3906,389,322.3906,379,326.3906,383,322.3906" style="stroke: #A80036; stroke-width: 1.0;"/><line style="stroke: #A80036; stroke-width: 1.0;" x1="183" x2="385" y1="322.3906" y2="322.3906"/><text fill="#000000" font-family="sans-serif" font-size="13" lengthAdjust="spacingAndGlyphs" textLength="184" x="190" y="317.4575">notify of model value change</text><polygon fill="#A80036" points="617,347.5234,627,351.5234,617,355.5234,621,351.5234" style="stroke: #A80036; stroke-width: 1.0;"/><line style="stroke: #A80036; stroke-width: 1.0;" x1="391" x2="623" y1="351.5234" y2="351.5234"/><text fill="#000000" font-family="sans-serif" font-size="13" lengthAdjust="spacingAndGlyphs" textLength="172" x="398" y="346.5903">unlisten to submodel value</text><polygon fill="#A80036" points="729.5,376.6563,739.5,380.6563,729.5,384.6563,733.5,380.6563" style="stroke: #A80036; stroke-width: 1.0;"/><line style="stroke: #A80036; stroke-width: 1.0;" x1="391" x2="735.5" y1="380.6563" y2="380.6563"/><text fill="#000000" font-family="sans-serif" font-size="13" lengthAdjust="spacingAndGlyphs" textLength="104" x="398" y="375.7231">set model( null )</text><polygon fill="#A80036" points="617,405.7891,627,409.7891,617,413.7891,621,409.7891" style="stroke: #A80036; stroke-width: 1.0;"/><line style="stroke: #A80036; stroke-width: 1.0;" x1="37" x2="623" y1="409.7891" y2="409.7891"/><text fill="#000000" font-family="sans-serif" font-size="13" lengthAdjust="spacingAndGlyphs" textLength="116" x="44" y="404.856">set submodel ( v )</text><polygon fill="#A80036" points="402,434.9219,392,438.9219,402,442.9219,398,438.9219" style="stroke: #A80036; stroke-width: 1.0;"/><line style="stroke: #A80036; stroke-width: 1.0;" x1="396" x2="628" y1="438.9219" y2="438.9219"/><text fill="#000000" font-family="sans-serif" font-size="13" lengthAdjust="spacingAndGlyphs" textLength="156" x="408" y="433.9888">notify of submodel value</text><polygon fill="#A80036" points="617,464.0547,627,468.0547,617,472.0547,621,468.0547" style="stroke: #A80036; stroke-width: 1.0;"/><line style="stroke: #A80036; stroke-width: 1.0;" x1="391" x2="623" y1="468.0547" y2="468.0547"/><text fill="#000000" font-family="sans-serif" font-size="13" lengthAdjust="spacingAndGlyphs" textLength="114" x="398" y="463.1216">v = get submodel</text><polygon fill="#A80036" points="729.5,493.1875,739.5,497.1875,729.5,501.1875,733.5,497.1875" style="stroke: #A80036; stroke-width: 1.0;"/><line style="stroke: #A80036; stroke-width: 1.0;" x1="391" x2="735.5" y1="497.1875" y2="497.1875"/><text fill="#000000" font-family="sans-serif" font-size="13" lengthAdjust="spacingAndGlyphs" textLength="89" x="398" y="492.2544">set model( v )</text></g></svg>