<?xml version="1.0" encoding="UTF-8" standalone="no"?><svg xmlns="http://www.w3.org/2000/svg" xmlns:xlink="http://www.w3.org/1999/xlink" contentScriptType="application/ecmascript" contentStyleType="text/css" height="481px" preserveAspectRatio="none" style="width:823px;height:481px;" version="1.1" viewBox="0 0 823 481" width="823px" zoomAndPan="magnify"><defs><filter height="300%" id="frzyoxi" width="300%" x="-1" y="-1"><feGaussianBlur result="blurOut" stdDeviation="2.0"/><feColorMatrix in="blurOut" result="blurOut2" type="matrix" values="0 0 0 0 0 0 0 0 0 0 0 0 0 0 0 0 0 0 .4 0"/><feOffset dx="4.0" dy="4.0" in="blurOut2" result="blurOut3"/><feBlend in="SourceGraphic" in2="blurOut3" mode="normal"/></filter></defs><g><text fill="#000000" font-family="sans-serif" font-size="14" font-weight="bold" lengthAdjust="spacingAndGlyphs" textLength="265" x="280.75" y="22.9951">Submodel owner synchronization</text><line style="stroke: #A80036; stroke-width: 1.0; stroke-dasharray: 5.0,5.0;" x1="42" x2="42" y1="81.5938" y2="480.3203"/><line style="stroke: #A80036; stroke-width: 1.0; stroke-dasharray: 5.0,5.0;" x1="188" x2="188" y1="81.5938" y2="480.3203"/><line style="stroke: #A80036; stroke-width: 1.0; stroke-dasharray: 5.0,5.0;" x1="396" x2="396" y1="81.5938" y2="480.3203"/><line style="stroke: #A80036; stroke-width: 1.0; stroke-dasharray: 5.0,5.0;" x1="633.5" x2="633.5" y1="81.5938" y2="480.3203"/><line style="stroke: #A80036; stroke-width: 1.0; stroke-dasharray: 5.0,5.0;" x1="746.5" x2="746.5" y1="81.5938" y2="480.3203"/><text fill="#000000" font-family="sans-serif" font-size="14" lengthAdjust="spacingAndGlyphs" textLength="62" x="8" y="78.292">app logic</text><ellipse cx="42" cy="49.2969" fill="#FEFECE" filter="url(#frzyoxi)" rx="12" ry="12" style="stroke: #A80036; stroke-width: 2.0;"/><polygon fill="#A80036" points="38,37.2969,44,32.2969,42,37.2969,44,42.2969,38,37.2969" style="stroke: #A80036; stroke-width: 1.0;"/><rect fill="#FEFECE" filter="url(#frzyoxi)" height="30.2969" style="stroke: #A80036; stroke-width: 1.5;" width="104" x="134" y="46.2969"/><text fill="#000000" font-family="sans-serif" font-size="14" lengthAdjust="spacingAndGlyphs" textLength="90" x="141" y="66.292">model owner</text><rect fill="#FEFECE" filter="url(#frzyoxi)" height="30.2969" style="stroke: #A80036; stroke-width: 1.5;" width="140" x="324" y="46.2969"/><text fill="#000000" font-family="sans-serif" font-size="14" lengthAdjust="spacingAndGlyphs" textLength="126" x="331" y="66.292">submodel adapter</text><rect fill="#FEFECE" filter="url(#frzyoxi)" height="30.2969" style="stroke: #A80036; stroke-width: 1.5;" width="57" x="603.5" y="46.2969"/><text fill="#000000" font-family="sans-serif" font-size="14" lengthAdjust="spacingAndGlyphs" textLength="43" x="610.5" y="66.292">model</text><rect fill="#FEFECE" filter="url(#frzyoxi)" height="30.2969" style="stroke: #A80036; stroke-width: 1.5;" width="140" x="674.5" y="46.2969"/><text fill="#000000" font-family="sans-serif" font-size="14" lengthAdjust="spacingAndGlyphs" textLength="126" x="681.5" y="66.292">(sub)model owner</text><polygon fill="#A80036" points="176,108.5938,186,112.5938,176,116.5938,180,112.5938" style="stroke: #A80036; stroke-width: 1.0;"/><line style="stroke: #A80036; stroke-width: 1.0;" x1="42" x2="182" y1="112.5938" y2="112.5938"/><text fill="#000000" font-family="sans-serif" font-size="13" lengthAdjust="spacingAndGlyphs" textLength="122" x="49" y="107.6606">set model( model )</text><polygon fill="#A80036" points="384,137.7266,394,141.7266,384,145.7266,388,141.7266" style="stroke: #A80036; stroke-width: 1.0;"/><line style="stroke: #A80036; stroke-width: 1.0;" x1="188" x2="390" y1="141.7266" y2="141.7266"/><text fill="#000000" font-family="sans-serif" font-size="13" lengthAdjust="spacingAndGlyphs" textLength="184" x="195" y="136.7935">notify of model value change</text><polygon fill="#A80036" points="622,166.8594,632,170.8594,622,174.8594,626,170.8594" style="stroke: #A80036; stroke-width: 1.0;"/><line style="stroke: #A80036; stroke-width: 1.0;" x1="396" x2="628" y1="170.8594" y2="170.8594"/><text fill="#000000" font-family="sans-serif" font-size="13" lengthAdjust="spacingAndGlyphs" textLength="214" x="403" y="165.9263">listen to submodel value changes</text><polygon fill="#A80036" points="622,195.9922,632,199.9922,622,203.9922,626,199.9922" style="stroke: #A80036; stroke-width: 1.0;"/><line style="stroke: #A80036; stroke-width: 1.0;" x1="396" x2="628" y1="199.9922" y2="199.9922"/><text fill="#000000" font-family="sans-serif" font-size="13" lengthAdjust="spacingAndGlyphs" textLength="114" x="403" y="195.0591">v = get submodel</text><polygon fill="#A80036" points="734.5,225.125,744.5,229.125,734.5,233.125,738.5,229.125" style="stroke: #A80036; stroke-width: 1.0;"/><line style="stroke: #A80036; stroke-width: 1.0;" x1="396" x2="740.5" y1="229.125" y2="229.125"/><text fill="#000000" font-family="sans-serif" font-size="13" lengthAdjust="spacingAndGlyphs" textLength="89" x="403" y="224.1919">set model( v )</text><polygon fill="#A80036" points="176,254.2578,186,258.2578,176,262.2578,180,258.2578" style="stroke: #A80036; stroke-width: 1.0;"/><line style="stroke: #A80036; stroke-width: 1.0;" x1="42" x2="182" y1="258.2578" y2="258.2578"/><text fill="#000000" font-family="sans-serif" font-size="13" lengthAdjust="spacingAndGlyphs" textLength="104" x="49" y="253.3247">set model( null )</text><polygon fill="#A80036" points="384,283.3906,394,287.3906,384,291.3906,388,287.3906" style="stroke: #A80036; stroke-width: 1.0;"/><line style="stroke: #A80036; stroke-width: 1.0;" x1="188" x2="390" y1="287.3906" y2="287.3906"/><text fill="#000000" font-family="sans-serif" font-size="13" lengthAdjust="spacingAndGlyphs" textLength="184" x="195" y="282.4575">notify of model value change</text><polygon fill="#A80036" points="622,312.5234,632,316.5234,622,320.5234,626,316.5234" style="stroke: #A80036; stroke-width: 1.0;"/><line style="stroke: #A80036; stroke-width: 1.0;" x1="396" x2="628" y1="316.5234" y2="316.5234"/><text fill="#000000" font-family="sans-serif" font-size="13" lengthAdjust="spacingAndGlyphs" textLength="172" x="403" y="311.5903">unlisten to submodel value</text><polygon fill="#A80036" points="734.5,341.6563,744.5,345.6563,734.5,349.6563,738.5,345.6563" style="stroke: #A80036; stroke-width: 1.0;"/><line style="stroke: #A80036; stroke-width: 1.0;" x1="396" x2="740.5" y1="345.6563" y2="345.6563"/><text fill="#000000" font-family="sans-serif" font-size="13" lengthAdjust="spacingAndGlyphs" textLength="104" x="403" y="340.7231">set model( null )</text><polygon fill="#A80036" points="622,370.7891,632,374.7891,622,378.7891,626,374.7891" style="stroke: #A80036; stroke-width: 1.0;"/><line style="stroke: #A80036; stroke-width: 1.0;" x1="42" x2="628" y1="374.7891" y2="374.7891"/><text fill="#000000" font-family="sans-serif" font-size="13" lengthAdjust="spacingAndGlyphs" textLength="116" x="49" y="369.856">set submodel ( v )</text><polygon fill="#A80036" points="407,399.9219,397,403.9219,407,407.9219,403,403.9219" style="stroke: #A80036; stroke-width: 1.0;"/><line style="stroke: #A80036; stroke-width: 1.0;" x1="401" x2="633" y1="403.9219" y2="403.9219"/><text fill="#000000" font-family="sans-serif" font-size="13" lengthAdjust="spacingAndGlyphs" textLength="156" x="413" y="398.9888">notify of submodel value</text><polygon fill="#A80036" points="622,429.0547,632,433.0547,622,437.0547,626,433.0547" style="stroke: #A80036; stroke-width: 1.0;"/><line style="stroke: #A80036; stroke-width: 1.0;" x1="396" x2="628" y1="433.0547" y2="433.0547"/><text fill="#000000" font-family="sans-serif" font-size="13" lengthAdjust="spacingAndGlyphs" textLength="114" x="403" y="428.1216">v = get submodel</text><polygon fill="#A80036" points="734.5,458.1875,744.5,462.1875,734.5,466.1875,738.5,462.1875" style="stroke: #A80036; stroke-width: 1.0;"/><line style="stroke: #A80036; stroke-width: 1.0;" x1="396" x2="740.5" y1="462.1875" y2="462.1875"/><text fill="#000000" font-family="sans-serif" font-size="13" lengthAdjust="spacingAndGlyphs" textLength="89" x="403" y="457.2544">set model( v )</text></g></svg>