<?xml version="1.0" encoding="UTF-8" standalone="no"?><svg xmlns="http://www.w3.org/2000/svg" xmlns:xlink="http://www.w3.org/1999/xlink" contentScriptType="application/ecmascript" contentStyleType="text/css" height="516px" preserveAspectRatio="none" style="width:817px;height:516px;" version="1.1" viewBox="0 0 817 516" width="817px" zoomAndPan="magnify"><defs><filter height="300%" id="ffx7gx8" width="300%" x="-1" y="-1"><feGaussianBlur result="blurOut" stdDeviation="2.0"/><feColorMatrix in="blurOut" result="blurOut2" type="matrix" values="0 0 0 0 0 0 0 0 0 0 0 0 0 0 0 0 0 0 .4 0"/><feOffset dx="4.0" dy="4.0" in="blurOut2" result="blurOut3"/><feBlend in="SourceGraphic" in2="blurOut3" mode="normal"/></filter></defs><g><text fill="#000000" font-family="sans-serif" font-size="14" font-weight="bold" lengthAdjust="spacingAndGlyphs" textLength="265" x="277.5" y="22.9951">Submodel owner synchronization</text><line style="stroke: #A80036; stroke-width: 1.0; stroke-dasharray: 5.0,5.0;" x1="35" x2="35" y1="116.5938" y2="515.3203"/><line style="stroke: #A80036; stroke-width: 1.0; stroke-dasharray: 5.0,5.0;" x1="181.5" x2="181.5" y1="116.5938" y2="515.3203"/><line style="stroke: #A80036; stroke-width: 1.0; stroke-dasharray: 5.0,5.0;" x1="389.5" x2="389.5" y1="116.5938" y2="515.3203"/><line style="stroke: #A80036; stroke-width: 1.0; stroke-dasharray: 5.0,5.0;" x1="627" x2="627" y1="116.5938" y2="515.3203"/><line style="stroke: #A80036; stroke-width: 1.0; stroke-dasharray: 5.0,5.0;" x1="740" x2="740" y1="116.5938" y2="515.3203"/><text fill="#000000" font-family="sans-serif" font-size="14" lengthAdjust="spacingAndGlyphs" textLength="49" x="8" y="113.292">feature</text><ellipse cx="35.5" cy="43.2969" fill="#FEFECE" filter="url(#ffx7gx8)" rx="8" ry="8" style="stroke: #A80036; stroke-width: 2.0;"/><path d="M35.5,51.2969 L35.5,78.2969 M22.5,59.2969 L48.5,59.2969 M35.5,78.2969 L22.5,93.2969 M35.5,78.2969 L48.5,93.2969 " fill="#FEFECE" filter="url(#ffx7gx8)" style="stroke: #A80036; stroke-width: 2.0;"/><rect fill="#FEFECE" filter="url(#ffx7gx8)" height="30.2969" style="stroke: #A80036; stroke-width: 1.5;" width="104" x="127.5" y="81.2969"/><text fill="#000000" font-family="sans-serif" font-size="14" lengthAdjust="spacingAndGlyphs" textLength="90" x="134.5" y="101.292">model owner</text><rect fill="#FEFECE" filter="url(#ffx7gx8)" height="30.2969" style="stroke: #A80036; stroke-width: 1.5;" width="140" x="317.5" y="81.2969"/><text fill="#000000" font-family="sans-serif" font-size="14" lengthAdjust="spacingAndGlyphs" textLength="126" x="324.5" y="101.292">submodel adapter</text><rect fill="#FEFECE" filter="url(#ffx7gx8)" height="30.2969" style="stroke: #A80036; stroke-width: 1.5;" width="57" x="597" y="81.2969"/><text fill="#000000" font-family="sans-serif" font-size="14" lengthAdjust="spacingAndGlyphs" textLength="43" x="604" y="101.292">model</text><rect fill="#FEFECE" filter="url(#ffx7gx8)" height="30.2969" style="stroke: #A80036; stroke-width: 1.5;" width="140" x="668" y="81.2969"/><text fill="#000000" font-family="sans-serif" font-size="14" lengthAdjust="spacingAndGlyphs" textLength="126" x="675" y="101.292">(sub)model owner</text><polygon fill="#A80036" points="169.5,143.5938,179.5,147.5938,169.5,151.5938,173.5,147.5938" style="stroke: #A80036; stroke-width: 1.0;"/><line style="stroke: #A80036; stroke-width: 1.0;" x1="35.5" x2="175.5" y1="147.5938" y2="147.5938"/><text fill="#000000" font-family="sans-serif" font-size="13" lengthAdjust="spacingAndGlyphs" textLength="122" x="42.5" y="142.6606">set model( model )</text><polygon fill="#A80036" points="377.5,172.7266,387.5,176.7266,377.5,180.7266,381.5,176.7266" style="stroke: #A80036; stroke-width: 1.0;"/><line style="stroke: #A80036; stroke-width: 1.0;" x1="181.5" x2="383.5" y1="176.7266" y2="176.7266"/><text fill="#000000" font-family="sans-serif" font-size="13" lengthAdjust="spacingAndGlyphs" textLength="184" x="188.5" y="171.7935">notify of model value change</text><polygon fill="#A80036" points="615.5,201.8594,625.5,205.8594,615.5,209.8594,619.5,205.8594" style="stroke: #A80036; stroke-width: 1.0;"/><line style="stroke: #A80036; stroke-width: 1.0;" x1="389.5" x2="621.5" y1="205.8594" y2="205.8594"/><text fill="#000000" font-family="sans-serif" font-size="13" lengthAdjust="spacingAndGlyphs" textLength="214" x="396.5" y="200.9263">listen to submodel value changes</text><polygon fill="#A80036" points="615.5,230.9922,625.5,234.9922,615.5,238.9922,619.5,234.9922" style="stroke: #A80036; stroke-width: 1.0;"/><line style="stroke: #A80036; stroke-width: 1.0;" x1="389.5" x2="621.5" y1="234.9922" y2="234.9922"/><text fill="#000000" font-family="sans-serif" font-size="13" lengthAdjust="spacingAndGlyphs" textLength="114" x="396.5" y="230.0591">v = get submodel</text><polygon fill="#A80036" points="728,260.125,738,264.125,728,268.125,732,264.125" style="stroke: #A80036; stroke-width: 1.0;"/><line style="stroke: #A80036; stroke-width: 1.0;" x1="389.5" x2="734" y1="264.125" y2="264.125"/><text fill="#000000" font-family="sans-serif" font-size="13" lengthAdjust="spacingAndGlyphs" textLength="89" x="396.5" y="259.1919">set model( v )</text><polygon fill="#A80036" points="169.5,289.2578,179.5,293.2578,169.5,297.2578,173.5,293.2578" style="stroke: #A80036; stroke-width: 1.0;"/><line style="stroke: #A80036; stroke-width: 1.0;" x1="35.5" x2="175.5" y1="293.2578" y2="293.2578"/><text fill="#000000" font-family="sans-serif" font-size="13" lengthAdjust="spacingAndGlyphs" textLength="104" x="42.5" y="288.3247">set model( null )</text><polygon fill="#A80036" points="377.5,318.3906,387.5,322.3906,377.5,326.3906,381.5,322.3906" style="stroke: #A80036; stroke-width: 1.0;"/><line style="stroke: #A80036; stroke-width: 1.0;" x1="181.5" x2="383.5" y1="322.3906" y2="322.3906"/><text fill="#000000" font-family="sans-serif" font-size="13" lengthAdjust="spacingAndGlyphs" textLength="184" x="188.5" y="317.4575">notify of model value change</text><polygon fill="#A80036" points="615.5,347.5234,625.5,351.5234,615.5,355.5234,619.5,351.5234" style="stroke: #A80036; stroke-width: 1.0;"/><line style="stroke: #A80036; stroke-width: 1.0;" x1="389.5" x2="621.5" y1="351.5234" y2="351.5234"/><text fill="#000000" font-family="sans-serif" font-size="13" lengthAdjust="spacingAndGlyphs" textLength="172" x="396.5" y="346.5903">unlisten to submodel value</text><polygon fill="#A80036" points="728,376.6563,738,380.6563,728,384.6563,732,380.6563" style="stroke: #A80036; stroke-width: 1.0;"/><line style="stroke: #A80036; stroke-width: 1.0;" x1="389.5" x2="734" y1="380.6563" y2="380.6563"/><text fill="#000000" font-family="sans-serif" font-size="13" lengthAdjust="spacingAndGlyphs" textLength="104" x="396.5" y="375.7231">set model( null )</text><polygon fill="#A80036" points="615.5,405.7891,625.5,409.7891,615.5,413.7891,619.5,409.7891" style="stroke: #A80036; stroke-width: 1.0;"/><line style="stroke: #A80036; stroke-width: 1.0;" x1="35.5" x2="621.5" y1="409.7891" y2="409.7891"/><text fill="#000000" font-family="sans-serif" font-size="13" lengthAdjust="spacingAndGlyphs" textLength="116" x="42.5" y="404.856">set submodel ( v )</text><polygon fill="#A80036" points="400.5,434.9219,390.5,438.9219,400.5,442.9219,396.5,438.9219" style="stroke: #A80036; stroke-width: 1.0;"/><line style="stroke: #A80036; stroke-width: 1.0;" x1="394.5" x2="626.5" y1="438.9219" y2="438.9219"/><text fill="#000000" font-family="sans-serif" font-size="13" lengthAdjust="spacingAndGlyphs" textLength="156" x="406.5" y="433.9888">notify of submodel value</text><polygon fill="#A80036" points="615.5,464.0547,625.5,468.0547,615.5,472.0547,619.5,468.0547" style="stroke: #A80036; stroke-width: 1.0;"/><line style="stroke: #A80036; stroke-width: 1.0;" x1="389.5" x2="621.5" y1="468.0547" y2="468.0547"/><text fill="#000000" font-family="sans-serif" font-size="13" lengthAdjust="spacingAndGlyphs" textLength="114" x="396.5" y="463.1216">v = get submodel</text><polygon fill="#A80036" points="728,493.1875,738,497.1875,728,501.1875,732,497.1875" style="stroke: #A80036; stroke-width: 1.0;"/><line style="stroke: #A80036; stroke-width: 1.0;" x1="389.5" x2="734" y1="497.1875" y2="497.1875"/><text fill="#000000" font-family="sans-serif" font-size="13" lengthAdjust="spacingAndGlyphs" textLength="89" x="396.5" y="492.2544">set model( v )</text></g></svg>