<?xml version="1.0" encoding="UTF-8" standalone="no"?><svg xmlns="http://www.w3.org/2000/svg" xmlns:xlink="http://www.w3.org/1999/xlink" contentScriptType="application/ecmascript" contentStyleType="text/css" height="370px" preserveAspectRatio="none" style="width:612px;height:370px;" version="1.1" viewBox="0 0 612 370" width="612px" zoomAndPan="magnify"><defs><filter height="300%" id="feyksfb" width="300%" x="-1" y="-1"><feGaussianBlur result="blurOut" stdDeviation="2.0"/><feColorMatrix in="blurOut" result="blurOut2" type="matrix" values="0 0 0 0 0 0 0 0 0 0 0 0 0 0 0 0 0 0 .4 0"/><feOffset dx="4.0" dy="4.0" in="blurOut2" result="blurOut3"/><feBlend in="SourceGraphic" in2="blurOut3" mode="normal"/></filter></defs><g><text fill="#000000" font-family="sans-serif" font-size="14" font-weight="bold" lengthAdjust="spacingAndGlyphs" textLength="175" x="220" y="22.9951">Value synchronization</text><line style="stroke: #A80036; stroke-width: 1.0; stroke-dasharray: 5.0,5.0;" x1="26" x2="26" y1="116.5938" y2="369.6563"/><line style="stroke: #A80036; stroke-width: 1.0; stroke-dasharray: 5.0,5.0;" x1="84" x2="84" y1="116.5938" y2="369.6563"/><line style="stroke: #A80036; stroke-width: 1.0; stroke-dasharray: 5.0,5.0;" x1="188" x2="188" y1="116.5938" y2="369.6563"/><line style="stroke: #A80036; stroke-width: 1.0; stroke-dasharray: 5.0,5.0;" x1="365.5" x2="365.5" y1="116.5938" y2="369.6563"/><line style="stroke: #A80036; stroke-width: 1.0; stroke-dasharray: 5.0,5.0;" x1="576" x2="576" y1="116.5938" y2="369.6563"/><text fill="#000000" font-family="sans-serif" font-size="14" lengthAdjust="spacingAndGlyphs" textLength="31" x="8" y="113.292">user</text><ellipse cx="26.5" cy="43.2969" fill="#FEFECE" filter="url(#feyksfb)" rx="8" ry="8" style="stroke: #A80036; stroke-width: 2.0;"/><path d="M26.5,51.2969 L26.5,78.2969 M13.5,59.2969 L39.5,59.2969 M26.5,78.2969 L13.5,93.2969 M26.5,78.2969 L39.5,93.2969 " fill="#FEFECE" filter="url(#feyksfb)" style="stroke: #A80036; stroke-width: 2.0;"/><text fill="#000000" font-family="sans-serif" font-size="14" lengthAdjust="spacingAndGlyphs" textLength="52" x="55" y="113.292">context</text><ellipse cx="84" cy="43.2969" fill="#FEFECE" filter="url(#feyksfb)" rx="8" ry="8" style="stroke: #A80036; stroke-width: 2.0;"/><path d="M84,51.2969 L84,78.2969 M71,59.2969 L97,59.2969 M84,78.2969 L71,93.2969 M84,78.2969 L97,93.2969 " fill="#FEFECE" filter="url(#feyksfb)" style="stroke: #A80036; stroke-width: 2.0;"/><rect fill="#FEFECE" filter="url(#feyksfb)" height="30.2969" style="stroke: #A80036; stroke-width: 1.5;" width="127" x="123" y="81.2969"/><text fill="#000000" font-family="sans-serif" font-size="14" lengthAdjust="spacingAndGlyphs" textLength="113" x="130" y="101.292">aspect projector</text><rect fill="#FEFECE" filter="url(#feyksfb)" height="30.2969" style="stroke: #A80036; stroke-width: 1.5;" width="118" x="304.5" y="81.2969"/><text fill="#000000" font-family="sans-serif" font-size="14" lengthAdjust="spacingAndGlyphs" textLength="104" x="311.5" y="101.292">aspect adapter</text><rect fill="#FEFECE" filter="url(#feyksfb)" height="30.2969" style="stroke: #A80036; stroke-width: 1.5;" width="57" x="546" y="81.2969"/><text fill="#000000" font-family="sans-serif" font-size="14" lengthAdjust="spacingAndGlyphs" textLength="43" x="553" y="101.292">model</text><polygon fill="#A80036" points="176.5,143.5938,186.5,147.5938,176.5,151.5938,180.5,147.5938" style="stroke: #A80036; stroke-width: 1.0;"/><line style="stroke: #A80036; stroke-width: 1.0;" x1="26.5" x2="182.5" y1="147.5938" y2="147.5938"/><text fill="#000000" font-family="sans-serif" font-size="13" lengthAdjust="spacingAndGlyphs" textLength="127" x="33.5" y="142.6606">enter new projected</text><polygon fill="#A80036" points="353.5,172.7266,363.5,176.7266,353.5,180.7266,357.5,176.7266" style="stroke: #A80036; stroke-width: 1.0;"/><line style="stroke: #A80036; stroke-width: 1.0;" x1="188.5" x2="359.5" y1="176.7266" y2="176.7266"/><text fill="#000000" font-family="sans-serif" font-size="13" lengthAdjust="spacingAndGlyphs" textLength="153" x="195.5" y="171.7935">notify of projected value</text><polygon fill="#A80036" points="199.5,201.8594,189.5,205.8594,199.5,209.8594,195.5,205.8594" style="stroke: #A80036; stroke-width: 1.0;"/><line style="stroke: #A80036; stroke-width: 1.0;" x1="193.5" x2="364.5" y1="205.8594" y2="205.8594"/><text fill="#000000" font-family="sans-serif" font-size="13" lengthAdjust="spacingAndGlyphs" textLength="123" x="205.5" y="200.9263">get projected value</text><polygon fill="#A80036" points="564.5,230.9922,574.5,234.9922,564.5,238.9922,568.5,234.9922" style="stroke: #A80036; stroke-width: 1.0;"/><line style="stroke: #A80036; stroke-width: 1.0;" x1="365.5" x2="570.5" y1="234.9922" y2="234.9922"/><text fill="#000000" font-family="sans-serif" font-size="13" lengthAdjust="spacingAndGlyphs" textLength="105" x="372.5" y="230.0591">set aspect value</text><polygon fill="#A80036" points="564.5,260.125,574.5,264.125,564.5,268.125,568.5,264.125" style="stroke: #A80036; stroke-width: 1.0;"/><line style="stroke: #A80036; stroke-width: 1.0;" x1="84" x2="570.5" y1="264.125" y2="264.125"/><text fill="#000000" font-family="sans-serif" font-size="13" lengthAdjust="spacingAndGlyphs" textLength="105" x="91" y="259.1919">set aspect value</text><polygon fill="#A80036" points="376.5,289.2578,366.5,293.2578,376.5,297.2578,372.5,293.2578" style="stroke: #A80036; stroke-width: 1.0;"/><line style="stroke: #A80036; stroke-width: 1.0;" x1="370.5" x2="575.5" y1="293.2578" y2="293.2578"/><text fill="#000000" font-family="sans-serif" font-size="13" lengthAdjust="spacingAndGlyphs" textLength="187" x="382.5" y="288.3247">notify of aspect value change</text><polygon fill="#A80036" points="564.5,318.3906,574.5,322.3906,564.5,326.3906,568.5,322.3906" style="stroke: #A80036; stroke-width: 1.0;"/><line style="stroke: #A80036; stroke-width: 1.0;" x1="365.5" x2="570.5" y1="322.3906" y2="322.3906"/><text fill="#000000" font-family="sans-serif" font-size="13" lengthAdjust="spacingAndGlyphs" textLength="106" x="372.5" y="317.4575">get aspect value</text><polygon fill="#A80036" points="199.5,347.5234,189.5,351.5234,199.5,355.5234,195.5,351.5234" style="stroke: #A80036; stroke-width: 1.0;"/><line style="stroke: #A80036; stroke-width: 1.0;" x1="193.5" x2="364.5" y1="351.5234" y2="351.5234"/><text fill="#000000" font-family="sans-serif" font-size="13" lengthAdjust="spacingAndGlyphs" textLength="122" x="205.5" y="346.5903">set projected value</text></g></svg>