<?xml version="1.0" encoding="UTF-8" standalone="no"?><svg xmlns="http://www.w3.org/2000/svg" xmlns:xlink="http://www.w3.org/1999/xlink" contentScriptType="application/ecmascript" contentStyleType="text/css" height="366px" preserveAspectRatio="none" style="width:624px;height:366px;" version="1.1" viewBox="0 0 624 366" width="624px" zoomAndPan="magnify"><defs><filter height="300%" id="frulm5kmiu27v" width="300%" x="-1" y="-1"><feGaussianBlur result="blurOut" stdDeviation="2.0"/><feColorMatrix in="blurOut" result="blurOut2" type="matrix" values="0 0 0 0 0 0 0 0 0 0 0 0 0 0 0 0 0 0 .4 0"/><feOffset dx="4.0" dy="4.0" in="blurOut2" result="blurOut3"/><feBlend in="SourceGraphic" in2="blurOut3" mode="normal"/></filter></defs><g><line style="stroke: #A80036; stroke-width: 1.0; stroke-dasharray: 5.0,5.0;" x1="26" x2="26" y1="86.2969" y2="354.4922"/><line style="stroke: #A80036; stroke-width: 1.0; stroke-dasharray: 5.0,5.0;" x1="89" x2="89" y1="86.2969" y2="354.4922"/><line style="stroke: #A80036; stroke-width: 1.0; stroke-dasharray: 5.0,5.0;" x1="198" x2="198" y1="86.2969" y2="354.4922"/><line style="stroke: #A80036; stroke-width: 1.0; stroke-dasharray: 5.0,5.0;" x1="375.5" x2="375.5" y1="86.2969" y2="354.4922"/><line style="stroke: #A80036; stroke-width: 1.0; stroke-dasharray: 5.0,5.0;" x1="586" x2="586" y1="86.2969" y2="354.4922"/><text fill="#000000" font-family="sans-serif" font-size="14" lengthAdjust="spacingAndGlyphs" textLength="31" x="8" y="82.9951">user</text><ellipse cx="26.5" cy="13" fill="#FEFECE" filter="url(#frulm5kmiu27v)" rx="8" ry="8" style="stroke: #A80036; stroke-width: 2.0;"/><path d="M26.5,21 L26.5,48 M13.5,29 L39.5,29 M26.5,48 L13.5,63 M26.5,48 L39.5,63 " fill="none" filter="url(#frulm5kmiu27v)" style="stroke: #A80036; stroke-width: 2.0;"/><text fill="#000000" font-family="sans-serif" font-size="14" lengthAdjust="spacingAndGlyphs" textLength="62" x="55" y="82.9951">app logic</text><ellipse cx="89" cy="54" fill="#FEFECE" filter="url(#frulm5kmiu27v)" rx="12" ry="12" style="stroke: #A80036; stroke-width: 2.0;"/><polygon fill="#A80036" points="85,42,91,37,89,42,91,47,85,42" style="stroke: #A80036; stroke-width: 1.0;"/><rect fill="#FEFECE" filter="url(#frulm5kmiu27v)" height="30.2969" style="stroke: #A80036; stroke-width: 1.5;" width="127" x="133" y="51"/><text fill="#000000" font-family="sans-serif" font-size="14" lengthAdjust="spacingAndGlyphs" textLength="113" x="140" y="70.9951">aspect projector</text><rect fill="#FEFECE" filter="url(#frulm5kmiu27v)" height="30.2969" style="stroke: #A80036; stroke-width: 1.5;" width="118" x="314.5" y="51"/><text fill="#000000" font-family="sans-serif" font-size="14" lengthAdjust="spacingAndGlyphs" textLength="104" x="321.5" y="70.9951">aspect adapter</text><rect fill="#FEFECE" filter="url(#frulm5kmiu27v)" height="30.2969" style="stroke: #A80036; stroke-width: 1.5;" width="57" x="556" y="51"/><text fill="#000000" font-family="sans-serif" font-size="14" lengthAdjust="spacingAndGlyphs" textLength="43" x="563" y="70.9951">model</text><polygon fill="#A80036" points="186.5,128.2969,196.5,132.2969,186.5,136.2969,190.5,132.2969" style="stroke: #A80036; stroke-width: 1.0;"/><line style="stroke: #A80036; stroke-width: 1.0;" x1="26.5" x2="192.5" y1="132.2969" y2="132.2969"/><text fill="#000000" font-family="sans-serif" font-size="13" lengthAdjust="spacingAndGlyphs" textLength="63" x="33.5" y="112.3638">enter new</text><text fill="#000000" font-family="sans-serif" font-size="13" lengthAdjust="spacingAndGlyphs" textLength="98" x="33.5" y="127.4966">projected value</text><polygon fill="#A80036" points="363.5,157.5625,373.5,161.5625,363.5,165.5625,367.5,161.5625" style="stroke: #A80036; stroke-width: 1.0;"/><line style="stroke: #A80036; stroke-width: 1.0;" x1="198.5" x2="369.5" y1="161.5625" y2="161.5625"/><text fill="#000000" font-family="sans-serif" font-size="13" lengthAdjust="spacingAndGlyphs" textLength="153" x="205.5" y="156.6294">notify of projected value</text><polygon fill="#A80036" points="209.5,186.6953,199.5,190.6953,209.5,194.6953,205.5,190.6953" style="stroke: #A80036; stroke-width: 1.0;"/><line style="stroke: #A80036; stroke-width: 1.0;" x1="203.5" x2="374.5" y1="190.6953" y2="190.6953"/><text fill="#000000" font-family="sans-serif" font-size="13" lengthAdjust="spacingAndGlyphs" textLength="123" x="215.5" y="185.7622">get projected value</text><polygon fill="#A80036" points="574.5,215.8281,584.5,219.8281,574.5,223.8281,578.5,219.8281" style="stroke: #A80036; stroke-width: 1.0;"/><line style="stroke: #A80036; stroke-width: 1.0;" x1="375.5" x2="580.5" y1="219.8281" y2="219.8281"/><text fill="#000000" font-family="sans-serif" font-size="13" lengthAdjust="spacingAndGlyphs" textLength="105" x="382.5" y="214.895">set aspect value</text><polygon fill="#A80036" points="574.5,244.9609,584.5,248.9609,574.5,252.9609,578.5,248.9609" style="stroke: #A80036; stroke-width: 1.0;"/><line style="stroke: #A80036; stroke-width: 1.0;" x1="89" x2="580.5" y1="248.9609" y2="248.9609"/><text fill="#000000" font-family="sans-serif" font-size="13" lengthAdjust="spacingAndGlyphs" textLength="105" x="96" y="244.0278">set aspect value</text><polygon fill="#A80036" points="386.5,274.0938,376.5,278.0938,386.5,282.0938,382.5,278.0938" style="stroke: #A80036; stroke-width: 1.0;"/><line style="stroke: #A80036; stroke-width: 1.0;" x1="380.5" x2="585.5" y1="278.0938" y2="278.0938"/><text fill="#000000" font-family="sans-serif" font-size="13" lengthAdjust="spacingAndGlyphs" textLength="187" x="392.5" y="273.1606">notify of aspect value change</text><polygon fill="#A80036" points="574.5,303.2266,584.5,307.2266,574.5,311.2266,578.5,307.2266" style="stroke: #A80036; stroke-width: 1.0;"/><line style="stroke: #A80036; stroke-width: 1.0;" x1="375.5" x2="580.5" y1="307.2266" y2="307.2266"/><text fill="#000000" font-family="sans-serif" font-size="13" lengthAdjust="spacingAndGlyphs" textLength="106" x="382.5" y="302.2935">get aspect value</text><polygon fill="#A80036" points="209.5,332.3594,199.5,336.3594,209.5,340.3594,205.5,336.3594" style="stroke: #A80036; stroke-width: 1.0;"/><line style="stroke: #A80036; stroke-width: 1.0;" x1="203.5" x2="374.5" y1="336.3594" y2="336.3594"/><text fill="#000000" font-family="sans-serif" font-size="13" lengthAdjust="spacingAndGlyphs" textLength="122" x="215.5" y="331.4263">set projected value</text><!--
@startuml

hide footbox

actor user
control "app logic"

user -> "aspect projector" : enter new\nprojected value
"aspect projector" -> "aspect adapter" : notify of projected value
"aspect adapter" -> "aspect projector" : get projected value
"aspect adapter" -> model : set aspect value
"app logic" -> model : set aspect value
model -> "aspect adapter" : notify of aspect value change
"aspect adapter" -> model : get aspect value
"aspect adapter" -> "aspect projector" : set projected value
@enduml

PlantUML version 1.2018.01(Sun Jan 28 18:08:22 UTC 2018)
(APACHE source distribution)
Java Runtime: Java(TM) SE Runtime Environment
JVM: Java HotSpot(TM) 64-Bit Server VM
Java Version: 1.8.0_151-b12
Operating System: Linux
OS Version: 4.4.0-112-generic
Default Encoding: UTF-8
Language: en
Country: US
--></g></svg>