<?xml version="1.0" encoding="UTF-8" standalone="no"?><svg xmlns="http://www.w3.org/2000/svg" xmlns:xlink="http://www.w3.org/1999/xlink" contentScriptType="application/ecmascript" contentStyleType="text/css" height="370px" preserveAspectRatio="none" style="width:622px;height:370px;" version="1.1" viewBox="0 0 622 370" width="622px" zoomAndPan="magnify"><defs><filter height="300%" id="fezocxy" width="300%" x="-1" y="-1"><feGaussianBlur result="blurOut" stdDeviation="2.0"/><feColorMatrix in="blurOut" result="blurOut2" type="matrix" values="0 0 0 0 0 0 0 0 0 0 0 0 0 0 0 0 0 0 .4 0"/><feOffset dx="4.0" dy="4.0" in="blurOut2" result="blurOut3"/><feBlend in="SourceGraphic" in2="blurOut3" mode="normal"/></filter></defs><g><text fill="#000000" font-family="sans-serif" font-size="14" font-weight="bold" lengthAdjust="spacingAndGlyphs" textLength="175" x="225" y="22.9951">Value synchronization</text><line style="stroke: #A80036; stroke-width: 1.0; stroke-dasharray: 5.0,5.0;" x1="26" x2="26" y1="116.5938" y2="369.6563"/><line style="stroke: #A80036; stroke-width: 1.0; stroke-dasharray: 5.0,5.0;" x1="89" x2="89" y1="116.5938" y2="369.6563"/><line style="stroke: #A80036; stroke-width: 1.0; stroke-dasharray: 5.0,5.0;" x1="198" x2="198" y1="116.5938" y2="369.6563"/><line style="stroke: #A80036; stroke-width: 1.0; stroke-dasharray: 5.0,5.0;" x1="375.5" x2="375.5" y1="116.5938" y2="369.6563"/><line style="stroke: #A80036; stroke-width: 1.0; stroke-dasharray: 5.0,5.0;" x1="586" x2="586" y1="116.5938" y2="369.6563"/><text fill="#000000" font-family="sans-serif" font-size="14" lengthAdjust="spacingAndGlyphs" textLength="31" x="8" y="113.292">user</text><ellipse cx="26.5" cy="43.2969" fill="#FEFECE" filter="url(#fezocxy)" rx="8" ry="8" style="stroke: #A80036; stroke-width: 2.0;"/><path d="M26.5,51.2969 L26.5,78.2969 M13.5,59.2969 L39.5,59.2969 M26.5,78.2969 L13.5,93.2969 M26.5,78.2969 L39.5,93.2969 " fill="#FEFECE" filter="url(#fezocxy)" style="stroke: #A80036; stroke-width: 2.0;"/><text fill="#000000" font-family="sans-serif" font-size="14" lengthAdjust="spacingAndGlyphs" textLength="62" x="55" y="113.292">app logic</text><ellipse cx="89" cy="84.2969" fill="#FEFECE" filter="url(#fezocxy)" rx="12" ry="12" style="stroke: #A80036; stroke-width: 2.0;"/><polygon fill="#A80036" points="85,72.2969,91,67.2969,89,72.2969,91,77.2969,85,72.2969" style="stroke: #A80036; stroke-width: 1.0;"/><rect fill="#FEFECE" filter="url(#fezocxy)" height="30.2969" style="stroke: #A80036; stroke-width: 1.5;" width="127" x="133" y="81.2969"/><text fill="#000000" font-family="sans-serif" font-size="14" lengthAdjust="spacingAndGlyphs" textLength="113" x="140" y="101.292">aspect projector</text><rect fill="#FEFECE" filter="url(#fezocxy)" height="30.2969" style="stroke: #A80036; stroke-width: 1.5;" width="118" x="314.5" y="81.2969"/><text fill="#000000" font-family="sans-serif" font-size="14" lengthAdjust="spacingAndGlyphs" textLength="104" x="321.5" y="101.292">aspect adapter</text><rect fill="#FEFECE" filter="url(#fezocxy)" height="30.2969" style="stroke: #A80036; stroke-width: 1.5;" width="57" x="556" y="81.2969"/><text fill="#000000" font-family="sans-serif" font-size="14" lengthAdjust="spacingAndGlyphs" textLength="43" x="563" y="101.292">model</text><polygon fill="#A80036" points="186.5,143.5938,196.5,147.5938,186.5,151.5938,190.5,147.5938" style="stroke: #A80036; stroke-width: 1.0;"/><line style="stroke: #A80036; stroke-width: 1.0;" x1="26.5" x2="192.5" y1="147.5938" y2="147.5938"/><text fill="#000000" font-family="sans-serif" font-size="13" lengthAdjust="spacingAndGlyphs" textLength="127" x="33.5" y="142.6606">enter new projected</text><polygon fill="#A80036" points="363.5,172.7266,373.5,176.7266,363.5,180.7266,367.5,176.7266" style="stroke: #A80036; stroke-width: 1.0;"/><line style="stroke: #A80036; stroke-width: 1.0;" x1="198.5" x2="369.5" y1="176.7266" y2="176.7266"/><text fill="#000000" font-family="sans-serif" font-size="13" lengthAdjust="spacingAndGlyphs" textLength="153" x="205.5" y="171.7935">notify of projected value</text><polygon fill="#A80036" points="209.5,201.8594,199.5,205.8594,209.5,209.8594,205.5,205.8594" style="stroke: #A80036; stroke-width: 1.0;"/><line style="stroke: #A80036; stroke-width: 1.0;" x1="203.5" x2="374.5" y1="205.8594" y2="205.8594"/><text fill="#000000" font-family="sans-serif" font-size="13" lengthAdjust="spacingAndGlyphs" textLength="123" x="215.5" y="200.9263">get projected value</text><polygon fill="#A80036" points="574.5,230.9922,584.5,234.9922,574.5,238.9922,578.5,234.9922" style="stroke: #A80036; stroke-width: 1.0;"/><line style="stroke: #A80036; stroke-width: 1.0;" x1="375.5" x2="580.5" y1="234.9922" y2="234.9922"/><text fill="#000000" font-family="sans-serif" font-size="13" lengthAdjust="spacingAndGlyphs" textLength="105" x="382.5" y="230.0591">set aspect value</text><polygon fill="#A80036" points="574.5,260.125,584.5,264.125,574.5,268.125,578.5,264.125" style="stroke: #A80036; stroke-width: 1.0;"/><line style="stroke: #A80036; stroke-width: 1.0;" x1="89" x2="580.5" y1="264.125" y2="264.125"/><text fill="#000000" font-family="sans-serif" font-size="13" lengthAdjust="spacingAndGlyphs" textLength="105" x="96" y="259.1919">set aspect value</text><polygon fill="#A80036" points="386.5,289.2578,376.5,293.2578,386.5,297.2578,382.5,293.2578" style="stroke: #A80036; stroke-width: 1.0;"/><line style="stroke: #A80036; stroke-width: 1.0;" x1="380.5" x2="585.5" y1="293.2578" y2="293.2578"/><text fill="#000000" font-family="sans-serif" font-size="13" lengthAdjust="spacingAndGlyphs" textLength="187" x="392.5" y="288.3247">notify of aspect value change</text><polygon fill="#A80036" points="574.5,318.3906,584.5,322.3906,574.5,326.3906,578.5,322.3906" style="stroke: #A80036; stroke-width: 1.0;"/><line style="stroke: #A80036; stroke-width: 1.0;" x1="375.5" x2="580.5" y1="322.3906" y2="322.3906"/><text fill="#000000" font-family="sans-serif" font-size="13" lengthAdjust="spacingAndGlyphs" textLength="106" x="382.5" y="317.4575">get aspect value</text><polygon fill="#A80036" points="209.5,347.5234,199.5,351.5234,209.5,355.5234,205.5,351.5234" style="stroke: #A80036; stroke-width: 1.0;"/><line style="stroke: #A80036; stroke-width: 1.0;" x1="203.5" x2="374.5" y1="351.5234" y2="351.5234"/><text fill="#000000" font-family="sans-serif" font-size="13" lengthAdjust="spacingAndGlyphs" textLength="122" x="215.5" y="346.5903">set projected value</text></g></svg>